M48
; DRILL file {KiCad 9.0.4} date 2025-09-27T21:55:26+0800
; FORMAT={-:-/ absolute / metric / decimal}
; #@! TF.CreationDate,2025-09-27T21:55:26+08:00
; #@! TF.GenerationSoftware,Kicad,Pcbnew,9.0.4
; #@! TF.FileFunction,Plated,1,2,PTH
FMAT,2
METRIC
; #@! TA.AperFunction,Plated,PTH,ViaDrill
T1C0.600
; #@! TA.AperFunction,Plated,PTH,ComponentDrill
T2C0.600
; #@! TA.AperFunction,Plated,PTH,ComponentDrill
T3C1.000
; #@! TA.AperFunction,Plated,PTH,ComponentDrill
T4C1.016
; #@! TA.AperFunction,Plated,PTH,ComponentDrill
T5C1.200
; #@! TA.AperFunction,Plated,PTH,ComponentDrill
T6C1.520
%
G90
G05
T1
X128.434Y-102.566
X128.5Y-101.0
X149.5Y-94.0
X149.5Y-106.5
X149.5Y-107.5
X151.0Y-94.0
X158.5Y-63.5
T2
X152.0Y-71.5
X154.0Y-71.5
T3
X161.5Y-66.46
X161.5Y-69.0
X161.5Y-71.54
T4
X117.696Y-61.34
X120.236Y-61.34
X122.776Y-61.34
X125.316Y-61.34
X126.84Y-109.6
X127.856Y-61.34
X129.38Y-109.6
X130.396Y-61.34
X131.92Y-109.6
X132.936Y-61.34
X134.46Y-109.6
X135.476Y-61.34
X137.0Y-109.6
X138.016Y-61.34
X139.54Y-109.6
X140.556Y-61.34
X142.08Y-109.6
X144.62Y-61.34
X144.62Y-109.6
X147.16Y-61.34
X149.7Y-61.34
X149.7Y-109.6
X152.24Y-61.34
X152.24Y-109.6
X154.78Y-61.34
X154.78Y-109.6
X157.32Y-61.34
X157.32Y-109.6
X159.86Y-61.34
X159.86Y-109.6
X162.4Y-61.34
X162.4Y-109.6
X162.527Y-81.66
X162.527Y-84.2
X162.527Y-86.74
X165.067Y-81.66
X165.067Y-84.2
X165.067Y-86.74
T5
X136.0Y-91.3
X136.0Y-104.0
X144.8Y-66.0
X145.0Y-91.15
X145.0Y-103.85
X157.5Y-66.0
T6
X119.0Y-92.42
X119.0Y-97.5
X119.0Y-102.58
X157.0Y-92.42
X157.0Y-97.5
X157.0Y-102.58
M30
