%TF.GenerationSoftware,KiCad,Pcbnew,9.0.4*%
%TF.CreationDate,2025-09-27T21:55:26+08:00*%
%TF.ProjectId,SolarTrackingSystem,536f6c61-7254-4726-9163-6b696e675379,0*%
%TF.SameCoordinates,Original*%
%TF.FileFunction,Drillmap*%
%TF.FilePolarity,Positive*%
%FSLAX45Y45*%
G04 Gerber Fmt 4.5, Leading zero omitted, Abs format (unit mm)*
G04 Created by KiCad (PCBNEW 9.0.4) date 2025-09-27 21:55:26*
%MOMM*%
%LPD*%
G01*
G04 APERTURE LIST*
%ADD10C,0.050000*%
%ADD11C,0.200000*%
%ADD12C,0.100000*%
%ADD13C,0.101600*%
%ADD14C,0.120000*%
%ADD15C,0.152000*%
G04 APERTURE END LIST*
D10*
X11050000Y-5850000D02*
X16750000Y-5850000D01*
X16750000Y-11250000D01*
X11050000Y-11250000D01*
X11050000Y-5850000D01*
D11*
D12*
X12813431Y-10226569D02*
X12873431Y-10286569D01*
X12873431Y-10226569D02*
X12813431Y-10286569D01*
X12820000Y-10070000D02*
X12880000Y-10130000D01*
X12880000Y-10070000D02*
X12820000Y-10130000D01*
X14920000Y-9370000D02*
X14980000Y-9430000D01*
X14980000Y-9370000D02*
X14920000Y-9430000D01*
X14920000Y-10620000D02*
X14980000Y-10680000D01*
X14980000Y-10620000D02*
X14920000Y-10680000D01*
X14920000Y-10720000D02*
X14980000Y-10780000D01*
X14980000Y-10720000D02*
X14920000Y-10780000D01*
X15070000Y-9370000D02*
X15130000Y-9430000D01*
X15130000Y-9370000D02*
X15070000Y-9430000D01*
X15820000Y-6320000D02*
X15880000Y-6380000D01*
X15880000Y-6320000D02*
X15820000Y-6380000D01*
X15230000Y-7150000D02*
G75*
G02*
X15170000Y-7150000I-30000J0D01*
G01*
X15170000Y-7150000D02*
G75*
G02*
X15230000Y-7150000I30000J0D01*
G01*
X15430000Y-7150000D02*
G75*
G02*
X15370000Y-7150000I-30000J0D01*
G01*
X15370000Y-7150000D02*
G75*
G02*
X15430000Y-7150000I30000J0D01*
G01*
X16150000Y-6596000D02*
X16150000Y-6696000D01*
X16100000Y-6646000D02*
X16200000Y-6646000D01*
X16150000Y-6850000D02*
X16150000Y-6950000D01*
X16100000Y-6900000D02*
X16200000Y-6900000D01*
X16150000Y-7104000D02*
X16150000Y-7204000D01*
X16100000Y-7154000D02*
X16200000Y-7154000D01*
D13*
X11805521Y-6169921D02*
X11805521Y-6098079D01*
X11733679Y-6098079D01*
X11733679Y-6169921D01*
X11805521Y-6169921D01*
X12059521Y-6169921D02*
X12059521Y-6098079D01*
X11987679Y-6098079D01*
X11987679Y-6169921D01*
X12059521Y-6169921D01*
X12313521Y-6169921D02*
X12313521Y-6098079D01*
X12241679Y-6098079D01*
X12241679Y-6169921D01*
X12313521Y-6169921D01*
X12567521Y-6169921D02*
X12567521Y-6098079D01*
X12495679Y-6098079D01*
X12495679Y-6169921D01*
X12567521Y-6169921D01*
X12719921Y-10995921D02*
X12719921Y-10924079D01*
X12648079Y-10924079D01*
X12648079Y-10995921D01*
X12719921Y-10995921D01*
X12821521Y-6169921D02*
X12821521Y-6098079D01*
X12749679Y-6098079D01*
X12749679Y-6169921D01*
X12821521Y-6169921D01*
X12973921Y-10995921D02*
X12973921Y-10924079D01*
X12902079Y-10924079D01*
X12902079Y-10995921D01*
X12973921Y-10995921D01*
X13075521Y-6169921D02*
X13075521Y-6098079D01*
X13003679Y-6098079D01*
X13003679Y-6169921D01*
X13075521Y-6169921D01*
X13227921Y-10995921D02*
X13227921Y-10924079D01*
X13156079Y-10924079D01*
X13156079Y-10995921D01*
X13227921Y-10995921D01*
X13329521Y-6169921D02*
X13329521Y-6098079D01*
X13257679Y-6098079D01*
X13257679Y-6169921D01*
X13329521Y-6169921D01*
X13481921Y-10995921D02*
X13481921Y-10924079D01*
X13410079Y-10924079D01*
X13410079Y-10995921D01*
X13481921Y-10995921D01*
X13583521Y-6169921D02*
X13583521Y-6098079D01*
X13511679Y-6098079D01*
X13511679Y-6169921D01*
X13583521Y-6169921D01*
X13735921Y-10995921D02*
X13735921Y-10924079D01*
X13664079Y-10924079D01*
X13664079Y-10995921D01*
X13735921Y-10995921D01*
X13837521Y-6169921D02*
X13837521Y-6098079D01*
X13765679Y-6098079D01*
X13765679Y-6169921D01*
X13837521Y-6169921D01*
X13989921Y-10995921D02*
X13989921Y-10924079D01*
X13918079Y-10924079D01*
X13918079Y-10995921D01*
X13989921Y-10995921D01*
X14091521Y-6169921D02*
X14091521Y-6098079D01*
X14019679Y-6098079D01*
X14019679Y-6169921D01*
X14091521Y-6169921D01*
X14243921Y-10995921D02*
X14243921Y-10924079D01*
X14172079Y-10924079D01*
X14172079Y-10995921D01*
X14243921Y-10995921D01*
X14497921Y-6169921D02*
X14497921Y-6098079D01*
X14426079Y-6098079D01*
X14426079Y-6169921D01*
X14497921Y-6169921D01*
X14497921Y-10995921D02*
X14497921Y-10924079D01*
X14426079Y-10924079D01*
X14426079Y-10995921D01*
X14497921Y-10995921D01*
X14751921Y-6169921D02*
X14751921Y-6098079D01*
X14680079Y-6098079D01*
X14680079Y-6169921D01*
X14751921Y-6169921D01*
X15005921Y-6169921D02*
X15005921Y-6098079D01*
X14934079Y-6098079D01*
X14934079Y-6169921D01*
X15005921Y-6169921D01*
X15005921Y-10995921D02*
X15005921Y-10924079D01*
X14934079Y-10924079D01*
X14934079Y-10995921D01*
X15005921Y-10995921D01*
X15259921Y-6169921D02*
X15259921Y-6098079D01*
X15188079Y-6098079D01*
X15188079Y-6169921D01*
X15259921Y-6169921D01*
X15259921Y-10995921D02*
X15259921Y-10924079D01*
X15188079Y-10924079D01*
X15188079Y-10995921D01*
X15259921Y-10995921D01*
X15513921Y-6169921D02*
X15513921Y-6098079D01*
X15442079Y-6098079D01*
X15442079Y-6169921D01*
X15513921Y-6169921D01*
X15513921Y-10995921D02*
X15513921Y-10924079D01*
X15442079Y-10924079D01*
X15442079Y-10995921D01*
X15513921Y-10995921D01*
X15767921Y-6169921D02*
X15767921Y-6098079D01*
X15696079Y-6098079D01*
X15696079Y-6169921D01*
X15767921Y-6169921D01*
X15767921Y-10995921D02*
X15767921Y-10924079D01*
X15696079Y-10924079D01*
X15696079Y-10995921D01*
X15767921Y-10995921D01*
X16021921Y-6169921D02*
X16021921Y-6098079D01*
X15950079Y-6098079D01*
X15950079Y-6169921D01*
X16021921Y-6169921D01*
X16021921Y-10995921D02*
X16021921Y-10924079D01*
X15950079Y-10924079D01*
X15950079Y-10995921D01*
X16021921Y-10995921D01*
X16275921Y-6169921D02*
X16275921Y-6098079D01*
X16204079Y-6098079D01*
X16204079Y-6169921D01*
X16275921Y-6169921D01*
X16275921Y-10995921D02*
X16275921Y-10924079D01*
X16204079Y-10924079D01*
X16204079Y-10995921D01*
X16275921Y-10995921D01*
X16288621Y-8201921D02*
X16288621Y-8130079D01*
X16216779Y-8130079D01*
X16216779Y-8201921D01*
X16288621Y-8201921D01*
X16288621Y-8455921D02*
X16288621Y-8384079D01*
X16216779Y-8384079D01*
X16216779Y-8455921D01*
X16288621Y-8455921D01*
X16288621Y-8709921D02*
X16288621Y-8638079D01*
X16216779Y-8638079D01*
X16216779Y-8709921D01*
X16288621Y-8709921D01*
X16542621Y-8201921D02*
X16542621Y-8130079D01*
X16470779Y-8130079D01*
X16470779Y-8201921D01*
X16542621Y-8201921D01*
X16542621Y-8455921D02*
X16542621Y-8384079D01*
X16470779Y-8384079D01*
X16470779Y-8455921D01*
X16542621Y-8455921D01*
X16542621Y-8709921D02*
X16542621Y-8638079D01*
X16470779Y-8638079D01*
X16470779Y-8709921D01*
X16542621Y-8709921D01*
D14*
X13600000Y-9190000D02*
X13660000Y-9130000D01*
X13600000Y-9070000D01*
X13540000Y-9130000D01*
X13600000Y-9190000D01*
X13600000Y-10460000D02*
X13660000Y-10400000D01*
X13600000Y-10340000D01*
X13540000Y-10400000D01*
X13600000Y-10460000D01*
X14480000Y-6660000D02*
X14540000Y-6600000D01*
X14480000Y-6540000D01*
X14420000Y-6600000D01*
X14480000Y-6660000D01*
X14500000Y-9175000D02*
X14560000Y-9115000D01*
X14500000Y-9055000D01*
X14440000Y-9115000D01*
X14500000Y-9175000D01*
X14500000Y-10445000D02*
X14560000Y-10385000D01*
X14500000Y-10325000D01*
X14440000Y-10385000D01*
X14500000Y-10445000D01*
X15750000Y-6660000D02*
X15810000Y-6600000D01*
X15750000Y-6540000D01*
X15690000Y-6600000D01*
X15750000Y-6660000D01*
D15*
X11824000Y-9166000D02*
X11976000Y-9318000D01*
X11976000Y-9166000D02*
X11824000Y-9318000D01*
X11976000Y-9242000D02*
G75*
G02*
X11824000Y-9242000I-76000J0D01*
G01*
X11824000Y-9242000D02*
G75*
G02*
X11976000Y-9242000I76000J0D01*
G01*
X11824000Y-9674000D02*
X11976000Y-9826000D01*
X11976000Y-9674000D02*
X11824000Y-9826000D01*
X11976000Y-9750000D02*
G75*
G02*
X11824000Y-9750000I-76000J0D01*
G01*
X11824000Y-9750000D02*
G75*
G02*
X11976000Y-9750000I76000J0D01*
G01*
X11824000Y-10182000D02*
X11976000Y-10334000D01*
X11976000Y-10182000D02*
X11824000Y-10334000D01*
X11976000Y-10258000D02*
G75*
G02*
X11824000Y-10258000I-76000J0D01*
G01*
X11824000Y-10258000D02*
G75*
G02*
X11976000Y-10258000I76000J0D01*
G01*
X15624000Y-9166000D02*
X15776000Y-9318000D01*
X15776000Y-9166000D02*
X15624000Y-9318000D01*
X15776000Y-9242000D02*
G75*
G02*
X15624000Y-9242000I-76000J0D01*
G01*
X15624000Y-9242000D02*
G75*
G02*
X15776000Y-9242000I76000J0D01*
G01*
X15624000Y-9674000D02*
X15776000Y-9826000D01*
X15776000Y-9674000D02*
X15624000Y-9826000D01*
X15776000Y-9750000D02*
G75*
G02*
X15624000Y-9750000I-76000J0D01*
G01*
X15624000Y-9750000D02*
G75*
G02*
X15776000Y-9750000I76000J0D01*
G01*
X15624000Y-10182000D02*
X15776000Y-10334000D01*
X15776000Y-10182000D02*
X15624000Y-10334000D01*
X15776000Y-10258000D02*
G75*
G02*
X15624000Y-10258000I-76000J0D01*
G01*
X15624000Y-10258000D02*
G75*
G02*
X15776000Y-10258000I76000J0D01*
G01*
D11*
X11308277Y-11563984D02*
X11308277Y-11363984D01*
X11308277Y-11363984D02*
X11355896Y-11363984D01*
X11355896Y-11363984D02*
X11384467Y-11373508D01*
X11384467Y-11373508D02*
X11403515Y-11392555D01*
X11403515Y-11392555D02*
X11413039Y-11411603D01*
X11413039Y-11411603D02*
X11422562Y-11449698D01*
X11422562Y-11449698D02*
X11422562Y-11478269D01*
X11422562Y-11478269D02*
X11413039Y-11516365D01*
X11413039Y-11516365D02*
X11403515Y-11535412D01*
X11403515Y-11535412D02*
X11384467Y-11554460D01*
X11384467Y-11554460D02*
X11355896Y-11563984D01*
X11355896Y-11563984D02*
X11308277Y-11563984D01*
X11508277Y-11563984D02*
X11508277Y-11430650D01*
X11508277Y-11468746D02*
X11517801Y-11449698D01*
X11517801Y-11449698D02*
X11527324Y-11440174D01*
X11527324Y-11440174D02*
X11546372Y-11430650D01*
X11546372Y-11430650D02*
X11565420Y-11430650D01*
X11632086Y-11563984D02*
X11632086Y-11430650D01*
X11632086Y-11363984D02*
X11622562Y-11373508D01*
X11622562Y-11373508D02*
X11632086Y-11383031D01*
X11632086Y-11383031D02*
X11641610Y-11373508D01*
X11641610Y-11373508D02*
X11632086Y-11363984D01*
X11632086Y-11363984D02*
X11632086Y-11383031D01*
X11755896Y-11563984D02*
X11736848Y-11554460D01*
X11736848Y-11554460D02*
X11727324Y-11535412D01*
X11727324Y-11535412D02*
X11727324Y-11363984D01*
X11860658Y-11563984D02*
X11841610Y-11554460D01*
X11841610Y-11554460D02*
X11832086Y-11535412D01*
X11832086Y-11535412D02*
X11832086Y-11363984D01*
X12089229Y-11563984D02*
X12089229Y-11363984D01*
X12089229Y-11363984D02*
X12155896Y-11506841D01*
X12155896Y-11506841D02*
X12222562Y-11363984D01*
X12222562Y-11363984D02*
X12222562Y-11563984D01*
X12403515Y-11563984D02*
X12403515Y-11459222D01*
X12403515Y-11459222D02*
X12393991Y-11440174D01*
X12393991Y-11440174D02*
X12374943Y-11430650D01*
X12374943Y-11430650D02*
X12336848Y-11430650D01*
X12336848Y-11430650D02*
X12317801Y-11440174D01*
X12403515Y-11554460D02*
X12384467Y-11563984D01*
X12384467Y-11563984D02*
X12336848Y-11563984D01*
X12336848Y-11563984D02*
X12317801Y-11554460D01*
X12317801Y-11554460D02*
X12308277Y-11535412D01*
X12308277Y-11535412D02*
X12308277Y-11516365D01*
X12308277Y-11516365D02*
X12317801Y-11497317D01*
X12317801Y-11497317D02*
X12336848Y-11487793D01*
X12336848Y-11487793D02*
X12384467Y-11487793D01*
X12384467Y-11487793D02*
X12403515Y-11478269D01*
X12498753Y-11430650D02*
X12498753Y-11630650D01*
X12498753Y-11440174D02*
X12517801Y-11430650D01*
X12517801Y-11430650D02*
X12555896Y-11430650D01*
X12555896Y-11430650D02*
X12574943Y-11440174D01*
X12574943Y-11440174D02*
X12584467Y-11449698D01*
X12584467Y-11449698D02*
X12593991Y-11468746D01*
X12593991Y-11468746D02*
X12593991Y-11525888D01*
X12593991Y-11525888D02*
X12584467Y-11544936D01*
X12584467Y-11544936D02*
X12574943Y-11554460D01*
X12574943Y-11554460D02*
X12555896Y-11563984D01*
X12555896Y-11563984D02*
X12517801Y-11563984D01*
X12517801Y-11563984D02*
X12498753Y-11554460D01*
X12679705Y-11544936D02*
X12689229Y-11554460D01*
X12689229Y-11554460D02*
X12679705Y-11563984D01*
X12679705Y-11563984D02*
X12670182Y-11554460D01*
X12670182Y-11554460D02*
X12679705Y-11544936D01*
X12679705Y-11544936D02*
X12679705Y-11563984D01*
X12679705Y-11440174D02*
X12689229Y-11449698D01*
X12689229Y-11449698D02*
X12679705Y-11459222D01*
X12679705Y-11459222D02*
X12670182Y-11449698D01*
X12670182Y-11449698D02*
X12679705Y-11440174D01*
X12679705Y-11440174D02*
X12679705Y-11459222D01*
D12*
X10987500Y-11862500D02*
X11047500Y-11922500D01*
X11047500Y-11862500D02*
X10987500Y-11922500D01*
D11*
X11346372Y-11783984D02*
X11365420Y-11783984D01*
X11365420Y-11783984D02*
X11384467Y-11793508D01*
X11384467Y-11793508D02*
X11393991Y-11803031D01*
X11393991Y-11803031D02*
X11403515Y-11822079D01*
X11403515Y-11822079D02*
X11413039Y-11860174D01*
X11413039Y-11860174D02*
X11413039Y-11907793D01*
X11413039Y-11907793D02*
X11403515Y-11945888D01*
X11403515Y-11945888D02*
X11393991Y-11964936D01*
X11393991Y-11964936D02*
X11384467Y-11974460D01*
X11384467Y-11974460D02*
X11365420Y-11983984D01*
X11365420Y-11983984D02*
X11346372Y-11983984D01*
X11346372Y-11983984D02*
X11327324Y-11974460D01*
X11327324Y-11974460D02*
X11317801Y-11964936D01*
X11317801Y-11964936D02*
X11308277Y-11945888D01*
X11308277Y-11945888D02*
X11298753Y-11907793D01*
X11298753Y-11907793D02*
X11298753Y-11860174D01*
X11298753Y-11860174D02*
X11308277Y-11822079D01*
X11308277Y-11822079D02*
X11317801Y-11803031D01*
X11317801Y-11803031D02*
X11327324Y-11793508D01*
X11327324Y-11793508D02*
X11346372Y-11783984D01*
X11498753Y-11964936D02*
X11508277Y-11974460D01*
X11508277Y-11974460D02*
X11498753Y-11983984D01*
X11498753Y-11983984D02*
X11489229Y-11974460D01*
X11489229Y-11974460D02*
X11498753Y-11964936D01*
X11498753Y-11964936D02*
X11498753Y-11983984D01*
X11679705Y-11783984D02*
X11641610Y-11783984D01*
X11641610Y-11783984D02*
X11622562Y-11793508D01*
X11622562Y-11793508D02*
X11613039Y-11803031D01*
X11613039Y-11803031D02*
X11593991Y-11831603D01*
X11593991Y-11831603D02*
X11584467Y-11869698D01*
X11584467Y-11869698D02*
X11584467Y-11945888D01*
X11584467Y-11945888D02*
X11593991Y-11964936D01*
X11593991Y-11964936D02*
X11603515Y-11974460D01*
X11603515Y-11974460D02*
X11622562Y-11983984D01*
X11622562Y-11983984D02*
X11660658Y-11983984D01*
X11660658Y-11983984D02*
X11679705Y-11974460D01*
X11679705Y-11974460D02*
X11689229Y-11964936D01*
X11689229Y-11964936D02*
X11698753Y-11945888D01*
X11698753Y-11945888D02*
X11698753Y-11898269D01*
X11698753Y-11898269D02*
X11689229Y-11879222D01*
X11689229Y-11879222D02*
X11679705Y-11869698D01*
X11679705Y-11869698D02*
X11660658Y-11860174D01*
X11660658Y-11860174D02*
X11622562Y-11860174D01*
X11622562Y-11860174D02*
X11603515Y-11869698D01*
X11603515Y-11869698D02*
X11593991Y-11879222D01*
X11593991Y-11879222D02*
X11584467Y-11898269D01*
X11822562Y-11783984D02*
X11841610Y-11783984D01*
X11841610Y-11783984D02*
X11860658Y-11793508D01*
X11860658Y-11793508D02*
X11870182Y-11803031D01*
X11870182Y-11803031D02*
X11879705Y-11822079D01*
X11879705Y-11822079D02*
X11889229Y-11860174D01*
X11889229Y-11860174D02*
X11889229Y-11907793D01*
X11889229Y-11907793D02*
X11879705Y-11945888D01*
X11879705Y-11945888D02*
X11870182Y-11964936D01*
X11870182Y-11964936D02*
X11860658Y-11974460D01*
X11860658Y-11974460D02*
X11841610Y-11983984D01*
X11841610Y-11983984D02*
X11822562Y-11983984D01*
X11822562Y-11983984D02*
X11803515Y-11974460D01*
X11803515Y-11974460D02*
X11793991Y-11964936D01*
X11793991Y-11964936D02*
X11784467Y-11945888D01*
X11784467Y-11945888D02*
X11774943Y-11907793D01*
X11774943Y-11907793D02*
X11774943Y-11860174D01*
X11774943Y-11860174D02*
X11784467Y-11822079D01*
X11784467Y-11822079D02*
X11793991Y-11803031D01*
X11793991Y-11803031D02*
X11803515Y-11793508D01*
X11803515Y-11793508D02*
X11822562Y-11783984D01*
X12013039Y-11783984D02*
X12032086Y-11783984D01*
X12032086Y-11783984D02*
X12051134Y-11793508D01*
X12051134Y-11793508D02*
X12060658Y-11803031D01*
X12060658Y-11803031D02*
X12070182Y-11822079D01*
X12070182Y-11822079D02*
X12079705Y-11860174D01*
X12079705Y-11860174D02*
X12079705Y-11907793D01*
X12079705Y-11907793D02*
X12070182Y-11945888D01*
X12070182Y-11945888D02*
X12060658Y-11964936D01*
X12060658Y-11964936D02*
X12051134Y-11974460D01*
X12051134Y-11974460D02*
X12032086Y-11983984D01*
X12032086Y-11983984D02*
X12013039Y-11983984D01*
X12013039Y-11983984D02*
X11993991Y-11974460D01*
X11993991Y-11974460D02*
X11984467Y-11964936D01*
X11984467Y-11964936D02*
X11974943Y-11945888D01*
X11974943Y-11945888D02*
X11965420Y-11907793D01*
X11965420Y-11907793D02*
X11965420Y-11860174D01*
X11965420Y-11860174D02*
X11974943Y-11822079D01*
X11974943Y-11822079D02*
X11984467Y-11803031D01*
X11984467Y-11803031D02*
X11993991Y-11793508D01*
X11993991Y-11793508D02*
X12013039Y-11783984D01*
X12165420Y-11983984D02*
X12165420Y-11850650D01*
X12165420Y-11869698D02*
X12174943Y-11860174D01*
X12174943Y-11860174D02*
X12193991Y-11850650D01*
X12193991Y-11850650D02*
X12222563Y-11850650D01*
X12222563Y-11850650D02*
X12241610Y-11860174D01*
X12241610Y-11860174D02*
X12251134Y-11879222D01*
X12251134Y-11879222D02*
X12251134Y-11983984D01*
X12251134Y-11879222D02*
X12260658Y-11860174D01*
X12260658Y-11860174D02*
X12279705Y-11850650D01*
X12279705Y-11850650D02*
X12308277Y-11850650D01*
X12308277Y-11850650D02*
X12327324Y-11860174D01*
X12327324Y-11860174D02*
X12336848Y-11879222D01*
X12336848Y-11879222D02*
X12336848Y-11983984D01*
X12432086Y-11983984D02*
X12432086Y-11850650D01*
X12432086Y-11869698D02*
X12441610Y-11860174D01*
X12441610Y-11860174D02*
X12460658Y-11850650D01*
X12460658Y-11850650D02*
X12489229Y-11850650D01*
X12489229Y-11850650D02*
X12508277Y-11860174D01*
X12508277Y-11860174D02*
X12517801Y-11879222D01*
X12517801Y-11879222D02*
X12517801Y-11983984D01*
X12517801Y-11879222D02*
X12527324Y-11860174D01*
X12527324Y-11860174D02*
X12546372Y-11850650D01*
X12546372Y-11850650D02*
X12574943Y-11850650D01*
X12574943Y-11850650D02*
X12593991Y-11860174D01*
X12593991Y-11860174D02*
X12603515Y-11879222D01*
X12603515Y-11879222D02*
X12603515Y-11983984D01*
X12993991Y-11774460D02*
X12822563Y-12031603D01*
X13251134Y-11783984D02*
X13270182Y-11783984D01*
X13270182Y-11783984D02*
X13289229Y-11793508D01*
X13289229Y-11793508D02*
X13298753Y-11803031D01*
X13298753Y-11803031D02*
X13308277Y-11822079D01*
X13308277Y-11822079D02*
X13317801Y-11860174D01*
X13317801Y-11860174D02*
X13317801Y-11907793D01*
X13317801Y-11907793D02*
X13308277Y-11945888D01*
X13308277Y-11945888D02*
X13298753Y-11964936D01*
X13298753Y-11964936D02*
X13289229Y-11974460D01*
X13289229Y-11974460D02*
X13270182Y-11983984D01*
X13270182Y-11983984D02*
X13251134Y-11983984D01*
X13251134Y-11983984D02*
X13232086Y-11974460D01*
X13232086Y-11974460D02*
X13222563Y-11964936D01*
X13222563Y-11964936D02*
X13213039Y-11945888D01*
X13213039Y-11945888D02*
X13203515Y-11907793D01*
X13203515Y-11907793D02*
X13203515Y-11860174D01*
X13203515Y-11860174D02*
X13213039Y-11822079D01*
X13213039Y-11822079D02*
X13222563Y-11803031D01*
X13222563Y-11803031D02*
X13232086Y-11793508D01*
X13232086Y-11793508D02*
X13251134Y-11783984D01*
X13403515Y-11964936D02*
X13413039Y-11974460D01*
X13413039Y-11974460D02*
X13403515Y-11983984D01*
X13403515Y-11983984D02*
X13393991Y-11974460D01*
X13393991Y-11974460D02*
X13403515Y-11964936D01*
X13403515Y-11964936D02*
X13403515Y-11983984D01*
X13536848Y-11783984D02*
X13555896Y-11783984D01*
X13555896Y-11783984D02*
X13574944Y-11793508D01*
X13574944Y-11793508D02*
X13584467Y-11803031D01*
X13584467Y-11803031D02*
X13593991Y-11822079D01*
X13593991Y-11822079D02*
X13603515Y-11860174D01*
X13603515Y-11860174D02*
X13603515Y-11907793D01*
X13603515Y-11907793D02*
X13593991Y-11945888D01*
X13593991Y-11945888D02*
X13584467Y-11964936D01*
X13584467Y-11964936D02*
X13574944Y-11974460D01*
X13574944Y-11974460D02*
X13555896Y-11983984D01*
X13555896Y-11983984D02*
X13536848Y-11983984D01*
X13536848Y-11983984D02*
X13517801Y-11974460D01*
X13517801Y-11974460D02*
X13508277Y-11964936D01*
X13508277Y-11964936D02*
X13498753Y-11945888D01*
X13498753Y-11945888D02*
X13489229Y-11907793D01*
X13489229Y-11907793D02*
X13489229Y-11860174D01*
X13489229Y-11860174D02*
X13498753Y-11822079D01*
X13498753Y-11822079D02*
X13508277Y-11803031D01*
X13508277Y-11803031D02*
X13517801Y-11793508D01*
X13517801Y-11793508D02*
X13536848Y-11783984D01*
X13679706Y-11803031D02*
X13689229Y-11793508D01*
X13689229Y-11793508D02*
X13708277Y-11783984D01*
X13708277Y-11783984D02*
X13755896Y-11783984D01*
X13755896Y-11783984D02*
X13774944Y-11793508D01*
X13774944Y-11793508D02*
X13784467Y-11803031D01*
X13784467Y-11803031D02*
X13793991Y-11822079D01*
X13793991Y-11822079D02*
X13793991Y-11841127D01*
X13793991Y-11841127D02*
X13784467Y-11869698D01*
X13784467Y-11869698D02*
X13670182Y-11983984D01*
X13670182Y-11983984D02*
X13793991Y-11983984D01*
X13860658Y-11783984D02*
X13984467Y-11783984D01*
X13984467Y-11783984D02*
X13917801Y-11860174D01*
X13917801Y-11860174D02*
X13946372Y-11860174D01*
X13946372Y-11860174D02*
X13965420Y-11869698D01*
X13965420Y-11869698D02*
X13974944Y-11879222D01*
X13974944Y-11879222D02*
X13984467Y-11898269D01*
X13984467Y-11898269D02*
X13984467Y-11945888D01*
X13984467Y-11945888D02*
X13974944Y-11964936D01*
X13974944Y-11964936D02*
X13965420Y-11974460D01*
X13965420Y-11974460D02*
X13946372Y-11983984D01*
X13946372Y-11983984D02*
X13889229Y-11983984D01*
X13889229Y-11983984D02*
X13870182Y-11974460D01*
X13870182Y-11974460D02*
X13860658Y-11964936D01*
X14155896Y-11783984D02*
X14117801Y-11783984D01*
X14117801Y-11783984D02*
X14098753Y-11793508D01*
X14098753Y-11793508D02*
X14089229Y-11803031D01*
X14089229Y-11803031D02*
X14070182Y-11831603D01*
X14070182Y-11831603D02*
X14060658Y-11869698D01*
X14060658Y-11869698D02*
X14060658Y-11945888D01*
X14060658Y-11945888D02*
X14070182Y-11964936D01*
X14070182Y-11964936D02*
X14079706Y-11974460D01*
X14079706Y-11974460D02*
X14098753Y-11983984D01*
X14098753Y-11983984D02*
X14136848Y-11983984D01*
X14136848Y-11983984D02*
X14155896Y-11974460D01*
X14155896Y-11974460D02*
X14165420Y-11964936D01*
X14165420Y-11964936D02*
X14174944Y-11945888D01*
X14174944Y-11945888D02*
X14174944Y-11898269D01*
X14174944Y-11898269D02*
X14165420Y-11879222D01*
X14165420Y-11879222D02*
X14155896Y-11869698D01*
X14155896Y-11869698D02*
X14136848Y-11860174D01*
X14136848Y-11860174D02*
X14098753Y-11860174D01*
X14098753Y-11860174D02*
X14079706Y-11869698D01*
X14079706Y-11869698D02*
X14070182Y-11879222D01*
X14070182Y-11879222D02*
X14060658Y-11898269D01*
X14251134Y-11783984D02*
X14251134Y-11822079D01*
X14327325Y-11783984D02*
X14327325Y-11822079D01*
X14622563Y-12060174D02*
X14613039Y-12050650D01*
X14613039Y-12050650D02*
X14593991Y-12022079D01*
X14593991Y-12022079D02*
X14584468Y-12003031D01*
X14584468Y-12003031D02*
X14574944Y-11974460D01*
X14574944Y-11974460D02*
X14565420Y-11926841D01*
X14565420Y-11926841D02*
X14565420Y-11888746D01*
X14565420Y-11888746D02*
X14574944Y-11841127D01*
X14574944Y-11841127D02*
X14584468Y-11812555D01*
X14584468Y-11812555D02*
X14593991Y-11793508D01*
X14593991Y-11793508D02*
X14613039Y-11764936D01*
X14613039Y-11764936D02*
X14622563Y-11755412D01*
X14679706Y-11783984D02*
X14813039Y-11783984D01*
X14813039Y-11783984D02*
X14727325Y-11983984D01*
X15041610Y-11983984D02*
X15041610Y-11783984D01*
X15127325Y-11983984D02*
X15127325Y-11879222D01*
X15127325Y-11879222D02*
X15117801Y-11860174D01*
X15117801Y-11860174D02*
X15098753Y-11850650D01*
X15098753Y-11850650D02*
X15070182Y-11850650D01*
X15070182Y-11850650D02*
X15051134Y-11860174D01*
X15051134Y-11860174D02*
X15041610Y-11869698D01*
X15251134Y-11983984D02*
X15232087Y-11974460D01*
X15232087Y-11974460D02*
X15222563Y-11964936D01*
X15222563Y-11964936D02*
X15213039Y-11945888D01*
X15213039Y-11945888D02*
X15213039Y-11888746D01*
X15213039Y-11888746D02*
X15222563Y-11869698D01*
X15222563Y-11869698D02*
X15232087Y-11860174D01*
X15232087Y-11860174D02*
X15251134Y-11850650D01*
X15251134Y-11850650D02*
X15279706Y-11850650D01*
X15279706Y-11850650D02*
X15298753Y-11860174D01*
X15298753Y-11860174D02*
X15308277Y-11869698D01*
X15308277Y-11869698D02*
X15317801Y-11888746D01*
X15317801Y-11888746D02*
X15317801Y-11945888D01*
X15317801Y-11945888D02*
X15308277Y-11964936D01*
X15308277Y-11964936D02*
X15298753Y-11974460D01*
X15298753Y-11974460D02*
X15279706Y-11983984D01*
X15279706Y-11983984D02*
X15251134Y-11983984D01*
X15432087Y-11983984D02*
X15413039Y-11974460D01*
X15413039Y-11974460D02*
X15403515Y-11955412D01*
X15403515Y-11955412D02*
X15403515Y-11783984D01*
X15584468Y-11974460D02*
X15565420Y-11983984D01*
X15565420Y-11983984D02*
X15527325Y-11983984D01*
X15527325Y-11983984D02*
X15508277Y-11974460D01*
X15508277Y-11974460D02*
X15498753Y-11955412D01*
X15498753Y-11955412D02*
X15498753Y-11879222D01*
X15498753Y-11879222D02*
X15508277Y-11860174D01*
X15508277Y-11860174D02*
X15527325Y-11850650D01*
X15527325Y-11850650D02*
X15565420Y-11850650D01*
X15565420Y-11850650D02*
X15584468Y-11860174D01*
X15584468Y-11860174D02*
X15593991Y-11879222D01*
X15593991Y-11879222D02*
X15593991Y-11898269D01*
X15593991Y-11898269D02*
X15498753Y-11917317D01*
X15670182Y-11974460D02*
X15689230Y-11983984D01*
X15689230Y-11983984D02*
X15727325Y-11983984D01*
X15727325Y-11983984D02*
X15746372Y-11974460D01*
X15746372Y-11974460D02*
X15755896Y-11955412D01*
X15755896Y-11955412D02*
X15755896Y-11945888D01*
X15755896Y-11945888D02*
X15746372Y-11926841D01*
X15746372Y-11926841D02*
X15727325Y-11917317D01*
X15727325Y-11917317D02*
X15698753Y-11917317D01*
X15698753Y-11917317D02*
X15679706Y-11907793D01*
X15679706Y-11907793D02*
X15670182Y-11888746D01*
X15670182Y-11888746D02*
X15670182Y-11879222D01*
X15670182Y-11879222D02*
X15679706Y-11860174D01*
X15679706Y-11860174D02*
X15698753Y-11850650D01*
X15698753Y-11850650D02*
X15727325Y-11850650D01*
X15727325Y-11850650D02*
X15746372Y-11860174D01*
X15822563Y-12060174D02*
X15832087Y-12050650D01*
X15832087Y-12050650D02*
X15851134Y-12022079D01*
X15851134Y-12022079D02*
X15860658Y-12003031D01*
X15860658Y-12003031D02*
X15870182Y-11974460D01*
X15870182Y-11974460D02*
X15879706Y-11926841D01*
X15879706Y-11926841D02*
X15879706Y-11888746D01*
X15879706Y-11888746D02*
X15870182Y-11841127D01*
X15870182Y-11841127D02*
X15860658Y-11812555D01*
X15860658Y-11812555D02*
X15851134Y-11793508D01*
X15851134Y-11793508D02*
X15832087Y-11764936D01*
X15832087Y-11764936D02*
X15822563Y-11755412D01*
D12*
X11047500Y-12156500D02*
G75*
G02*
X10987500Y-12156500I-30000J0D01*
G01*
X10987500Y-12156500D02*
G75*
G02*
X11047500Y-12156500I30000J0D01*
G01*
D11*
X11346372Y-12047984D02*
X11365420Y-12047984D01*
X11365420Y-12047984D02*
X11384467Y-12057508D01*
X11384467Y-12057508D02*
X11393991Y-12067031D01*
X11393991Y-12067031D02*
X11403515Y-12086079D01*
X11403515Y-12086079D02*
X11413039Y-12124174D01*
X11413039Y-12124174D02*
X11413039Y-12171793D01*
X11413039Y-12171793D02*
X11403515Y-12209888D01*
X11403515Y-12209888D02*
X11393991Y-12228936D01*
X11393991Y-12228936D02*
X11384467Y-12238460D01*
X11384467Y-12238460D02*
X11365420Y-12247984D01*
X11365420Y-12247984D02*
X11346372Y-12247984D01*
X11346372Y-12247984D02*
X11327324Y-12238460D01*
X11327324Y-12238460D02*
X11317801Y-12228936D01*
X11317801Y-12228936D02*
X11308277Y-12209888D01*
X11308277Y-12209888D02*
X11298753Y-12171793D01*
X11298753Y-12171793D02*
X11298753Y-12124174D01*
X11298753Y-12124174D02*
X11308277Y-12086079D01*
X11308277Y-12086079D02*
X11317801Y-12067031D01*
X11317801Y-12067031D02*
X11327324Y-12057508D01*
X11327324Y-12057508D02*
X11346372Y-12047984D01*
X11498753Y-12228936D02*
X11508277Y-12238460D01*
X11508277Y-12238460D02*
X11498753Y-12247984D01*
X11498753Y-12247984D02*
X11489229Y-12238460D01*
X11489229Y-12238460D02*
X11498753Y-12228936D01*
X11498753Y-12228936D02*
X11498753Y-12247984D01*
X11679705Y-12047984D02*
X11641610Y-12047984D01*
X11641610Y-12047984D02*
X11622562Y-12057508D01*
X11622562Y-12057508D02*
X11613039Y-12067031D01*
X11613039Y-12067031D02*
X11593991Y-12095603D01*
X11593991Y-12095603D02*
X11584467Y-12133698D01*
X11584467Y-12133698D02*
X11584467Y-12209888D01*
X11584467Y-12209888D02*
X11593991Y-12228936D01*
X11593991Y-12228936D02*
X11603515Y-12238460D01*
X11603515Y-12238460D02*
X11622562Y-12247984D01*
X11622562Y-12247984D02*
X11660658Y-12247984D01*
X11660658Y-12247984D02*
X11679705Y-12238460D01*
X11679705Y-12238460D02*
X11689229Y-12228936D01*
X11689229Y-12228936D02*
X11698753Y-12209888D01*
X11698753Y-12209888D02*
X11698753Y-12162269D01*
X11698753Y-12162269D02*
X11689229Y-12143222D01*
X11689229Y-12143222D02*
X11679705Y-12133698D01*
X11679705Y-12133698D02*
X11660658Y-12124174D01*
X11660658Y-12124174D02*
X11622562Y-12124174D01*
X11622562Y-12124174D02*
X11603515Y-12133698D01*
X11603515Y-12133698D02*
X11593991Y-12143222D01*
X11593991Y-12143222D02*
X11584467Y-12162269D01*
X11822562Y-12047984D02*
X11841610Y-12047984D01*
X11841610Y-12047984D02*
X11860658Y-12057508D01*
X11860658Y-12057508D02*
X11870182Y-12067031D01*
X11870182Y-12067031D02*
X11879705Y-12086079D01*
X11879705Y-12086079D02*
X11889229Y-12124174D01*
X11889229Y-12124174D02*
X11889229Y-12171793D01*
X11889229Y-12171793D02*
X11879705Y-12209888D01*
X11879705Y-12209888D02*
X11870182Y-12228936D01*
X11870182Y-12228936D02*
X11860658Y-12238460D01*
X11860658Y-12238460D02*
X11841610Y-12247984D01*
X11841610Y-12247984D02*
X11822562Y-12247984D01*
X11822562Y-12247984D02*
X11803515Y-12238460D01*
X11803515Y-12238460D02*
X11793991Y-12228936D01*
X11793991Y-12228936D02*
X11784467Y-12209888D01*
X11784467Y-12209888D02*
X11774943Y-12171793D01*
X11774943Y-12171793D02*
X11774943Y-12124174D01*
X11774943Y-12124174D02*
X11784467Y-12086079D01*
X11784467Y-12086079D02*
X11793991Y-12067031D01*
X11793991Y-12067031D02*
X11803515Y-12057508D01*
X11803515Y-12057508D02*
X11822562Y-12047984D01*
X12013039Y-12047984D02*
X12032086Y-12047984D01*
X12032086Y-12047984D02*
X12051134Y-12057508D01*
X12051134Y-12057508D02*
X12060658Y-12067031D01*
X12060658Y-12067031D02*
X12070182Y-12086079D01*
X12070182Y-12086079D02*
X12079705Y-12124174D01*
X12079705Y-12124174D02*
X12079705Y-12171793D01*
X12079705Y-12171793D02*
X12070182Y-12209888D01*
X12070182Y-12209888D02*
X12060658Y-12228936D01*
X12060658Y-12228936D02*
X12051134Y-12238460D01*
X12051134Y-12238460D02*
X12032086Y-12247984D01*
X12032086Y-12247984D02*
X12013039Y-12247984D01*
X12013039Y-12247984D02*
X11993991Y-12238460D01*
X11993991Y-12238460D02*
X11984467Y-12228936D01*
X11984467Y-12228936D02*
X11974943Y-12209888D01*
X11974943Y-12209888D02*
X11965420Y-12171793D01*
X11965420Y-12171793D02*
X11965420Y-12124174D01*
X11965420Y-12124174D02*
X11974943Y-12086079D01*
X11974943Y-12086079D02*
X11984467Y-12067031D01*
X11984467Y-12067031D02*
X11993991Y-12057508D01*
X11993991Y-12057508D02*
X12013039Y-12047984D01*
X12165420Y-12247984D02*
X12165420Y-12114650D01*
X12165420Y-12133698D02*
X12174943Y-12124174D01*
X12174943Y-12124174D02*
X12193991Y-12114650D01*
X12193991Y-12114650D02*
X12222563Y-12114650D01*
X12222563Y-12114650D02*
X12241610Y-12124174D01*
X12241610Y-12124174D02*
X12251134Y-12143222D01*
X12251134Y-12143222D02*
X12251134Y-12247984D01*
X12251134Y-12143222D02*
X12260658Y-12124174D01*
X12260658Y-12124174D02*
X12279705Y-12114650D01*
X12279705Y-12114650D02*
X12308277Y-12114650D01*
X12308277Y-12114650D02*
X12327324Y-12124174D01*
X12327324Y-12124174D02*
X12336848Y-12143222D01*
X12336848Y-12143222D02*
X12336848Y-12247984D01*
X12432086Y-12247984D02*
X12432086Y-12114650D01*
X12432086Y-12133698D02*
X12441610Y-12124174D01*
X12441610Y-12124174D02*
X12460658Y-12114650D01*
X12460658Y-12114650D02*
X12489229Y-12114650D01*
X12489229Y-12114650D02*
X12508277Y-12124174D01*
X12508277Y-12124174D02*
X12517801Y-12143222D01*
X12517801Y-12143222D02*
X12517801Y-12247984D01*
X12517801Y-12143222D02*
X12527324Y-12124174D01*
X12527324Y-12124174D02*
X12546372Y-12114650D01*
X12546372Y-12114650D02*
X12574943Y-12114650D01*
X12574943Y-12114650D02*
X12593991Y-12124174D01*
X12593991Y-12124174D02*
X12603515Y-12143222D01*
X12603515Y-12143222D02*
X12603515Y-12247984D01*
X12993991Y-12038460D02*
X12822563Y-12295603D01*
X13251134Y-12047984D02*
X13270182Y-12047984D01*
X13270182Y-12047984D02*
X13289229Y-12057508D01*
X13289229Y-12057508D02*
X13298753Y-12067031D01*
X13298753Y-12067031D02*
X13308277Y-12086079D01*
X13308277Y-12086079D02*
X13317801Y-12124174D01*
X13317801Y-12124174D02*
X13317801Y-12171793D01*
X13317801Y-12171793D02*
X13308277Y-12209888D01*
X13308277Y-12209888D02*
X13298753Y-12228936D01*
X13298753Y-12228936D02*
X13289229Y-12238460D01*
X13289229Y-12238460D02*
X13270182Y-12247984D01*
X13270182Y-12247984D02*
X13251134Y-12247984D01*
X13251134Y-12247984D02*
X13232086Y-12238460D01*
X13232086Y-12238460D02*
X13222563Y-12228936D01*
X13222563Y-12228936D02*
X13213039Y-12209888D01*
X13213039Y-12209888D02*
X13203515Y-12171793D01*
X13203515Y-12171793D02*
X13203515Y-12124174D01*
X13203515Y-12124174D02*
X13213039Y-12086079D01*
X13213039Y-12086079D02*
X13222563Y-12067031D01*
X13222563Y-12067031D02*
X13232086Y-12057508D01*
X13232086Y-12057508D02*
X13251134Y-12047984D01*
X13403515Y-12228936D02*
X13413039Y-12238460D01*
X13413039Y-12238460D02*
X13403515Y-12247984D01*
X13403515Y-12247984D02*
X13393991Y-12238460D01*
X13393991Y-12238460D02*
X13403515Y-12228936D01*
X13403515Y-12228936D02*
X13403515Y-12247984D01*
X13536848Y-12047984D02*
X13555896Y-12047984D01*
X13555896Y-12047984D02*
X13574944Y-12057508D01*
X13574944Y-12057508D02*
X13584467Y-12067031D01*
X13584467Y-12067031D02*
X13593991Y-12086079D01*
X13593991Y-12086079D02*
X13603515Y-12124174D01*
X13603515Y-12124174D02*
X13603515Y-12171793D01*
X13603515Y-12171793D02*
X13593991Y-12209888D01*
X13593991Y-12209888D02*
X13584467Y-12228936D01*
X13584467Y-12228936D02*
X13574944Y-12238460D01*
X13574944Y-12238460D02*
X13555896Y-12247984D01*
X13555896Y-12247984D02*
X13536848Y-12247984D01*
X13536848Y-12247984D02*
X13517801Y-12238460D01*
X13517801Y-12238460D02*
X13508277Y-12228936D01*
X13508277Y-12228936D02*
X13498753Y-12209888D01*
X13498753Y-12209888D02*
X13489229Y-12171793D01*
X13489229Y-12171793D02*
X13489229Y-12124174D01*
X13489229Y-12124174D02*
X13498753Y-12086079D01*
X13498753Y-12086079D02*
X13508277Y-12067031D01*
X13508277Y-12067031D02*
X13517801Y-12057508D01*
X13517801Y-12057508D02*
X13536848Y-12047984D01*
X13679706Y-12067031D02*
X13689229Y-12057508D01*
X13689229Y-12057508D02*
X13708277Y-12047984D01*
X13708277Y-12047984D02*
X13755896Y-12047984D01*
X13755896Y-12047984D02*
X13774944Y-12057508D01*
X13774944Y-12057508D02*
X13784467Y-12067031D01*
X13784467Y-12067031D02*
X13793991Y-12086079D01*
X13793991Y-12086079D02*
X13793991Y-12105127D01*
X13793991Y-12105127D02*
X13784467Y-12133698D01*
X13784467Y-12133698D02*
X13670182Y-12247984D01*
X13670182Y-12247984D02*
X13793991Y-12247984D01*
X13860658Y-12047984D02*
X13984467Y-12047984D01*
X13984467Y-12047984D02*
X13917801Y-12124174D01*
X13917801Y-12124174D02*
X13946372Y-12124174D01*
X13946372Y-12124174D02*
X13965420Y-12133698D01*
X13965420Y-12133698D02*
X13974944Y-12143222D01*
X13974944Y-12143222D02*
X13984467Y-12162269D01*
X13984467Y-12162269D02*
X13984467Y-12209888D01*
X13984467Y-12209888D02*
X13974944Y-12228936D01*
X13974944Y-12228936D02*
X13965420Y-12238460D01*
X13965420Y-12238460D02*
X13946372Y-12247984D01*
X13946372Y-12247984D02*
X13889229Y-12247984D01*
X13889229Y-12247984D02*
X13870182Y-12238460D01*
X13870182Y-12238460D02*
X13860658Y-12228936D01*
X14155896Y-12047984D02*
X14117801Y-12047984D01*
X14117801Y-12047984D02*
X14098753Y-12057508D01*
X14098753Y-12057508D02*
X14089229Y-12067031D01*
X14089229Y-12067031D02*
X14070182Y-12095603D01*
X14070182Y-12095603D02*
X14060658Y-12133698D01*
X14060658Y-12133698D02*
X14060658Y-12209888D01*
X14060658Y-12209888D02*
X14070182Y-12228936D01*
X14070182Y-12228936D02*
X14079706Y-12238460D01*
X14079706Y-12238460D02*
X14098753Y-12247984D01*
X14098753Y-12247984D02*
X14136848Y-12247984D01*
X14136848Y-12247984D02*
X14155896Y-12238460D01*
X14155896Y-12238460D02*
X14165420Y-12228936D01*
X14165420Y-12228936D02*
X14174944Y-12209888D01*
X14174944Y-12209888D02*
X14174944Y-12162269D01*
X14174944Y-12162269D02*
X14165420Y-12143222D01*
X14165420Y-12143222D02*
X14155896Y-12133698D01*
X14155896Y-12133698D02*
X14136848Y-12124174D01*
X14136848Y-12124174D02*
X14098753Y-12124174D01*
X14098753Y-12124174D02*
X14079706Y-12133698D01*
X14079706Y-12133698D02*
X14070182Y-12143222D01*
X14070182Y-12143222D02*
X14060658Y-12162269D01*
X14251134Y-12047984D02*
X14251134Y-12086079D01*
X14327325Y-12047984D02*
X14327325Y-12086079D01*
X14622563Y-12324174D02*
X14613039Y-12314650D01*
X14613039Y-12314650D02*
X14593991Y-12286079D01*
X14593991Y-12286079D02*
X14584468Y-12267031D01*
X14584468Y-12267031D02*
X14574944Y-12238460D01*
X14574944Y-12238460D02*
X14565420Y-12190841D01*
X14565420Y-12190841D02*
X14565420Y-12152746D01*
X14565420Y-12152746D02*
X14574944Y-12105127D01*
X14574944Y-12105127D02*
X14584468Y-12076555D01*
X14584468Y-12076555D02*
X14593991Y-12057508D01*
X14593991Y-12057508D02*
X14613039Y-12028936D01*
X14613039Y-12028936D02*
X14622563Y-12019412D01*
X14689229Y-12067031D02*
X14698753Y-12057508D01*
X14698753Y-12057508D02*
X14717801Y-12047984D01*
X14717801Y-12047984D02*
X14765420Y-12047984D01*
X14765420Y-12047984D02*
X14784468Y-12057508D01*
X14784468Y-12057508D02*
X14793991Y-12067031D01*
X14793991Y-12067031D02*
X14803515Y-12086079D01*
X14803515Y-12086079D02*
X14803515Y-12105127D01*
X14803515Y-12105127D02*
X14793991Y-12133698D01*
X14793991Y-12133698D02*
X14679706Y-12247984D01*
X14679706Y-12247984D02*
X14803515Y-12247984D01*
X15041610Y-12247984D02*
X15041610Y-12047984D01*
X15127325Y-12247984D02*
X15127325Y-12143222D01*
X15127325Y-12143222D02*
X15117801Y-12124174D01*
X15117801Y-12124174D02*
X15098753Y-12114650D01*
X15098753Y-12114650D02*
X15070182Y-12114650D01*
X15070182Y-12114650D02*
X15051134Y-12124174D01*
X15051134Y-12124174D02*
X15041610Y-12133698D01*
X15251134Y-12247984D02*
X15232087Y-12238460D01*
X15232087Y-12238460D02*
X15222563Y-12228936D01*
X15222563Y-12228936D02*
X15213039Y-12209888D01*
X15213039Y-12209888D02*
X15213039Y-12152746D01*
X15213039Y-12152746D02*
X15222563Y-12133698D01*
X15222563Y-12133698D02*
X15232087Y-12124174D01*
X15232087Y-12124174D02*
X15251134Y-12114650D01*
X15251134Y-12114650D02*
X15279706Y-12114650D01*
X15279706Y-12114650D02*
X15298753Y-12124174D01*
X15298753Y-12124174D02*
X15308277Y-12133698D01*
X15308277Y-12133698D02*
X15317801Y-12152746D01*
X15317801Y-12152746D02*
X15317801Y-12209888D01*
X15317801Y-12209888D02*
X15308277Y-12228936D01*
X15308277Y-12228936D02*
X15298753Y-12238460D01*
X15298753Y-12238460D02*
X15279706Y-12247984D01*
X15279706Y-12247984D02*
X15251134Y-12247984D01*
X15432087Y-12247984D02*
X15413039Y-12238460D01*
X15413039Y-12238460D02*
X15403515Y-12219412D01*
X15403515Y-12219412D02*
X15403515Y-12047984D01*
X15584468Y-12238460D02*
X15565420Y-12247984D01*
X15565420Y-12247984D02*
X15527325Y-12247984D01*
X15527325Y-12247984D02*
X15508277Y-12238460D01*
X15508277Y-12238460D02*
X15498753Y-12219412D01*
X15498753Y-12219412D02*
X15498753Y-12143222D01*
X15498753Y-12143222D02*
X15508277Y-12124174D01*
X15508277Y-12124174D02*
X15527325Y-12114650D01*
X15527325Y-12114650D02*
X15565420Y-12114650D01*
X15565420Y-12114650D02*
X15584468Y-12124174D01*
X15584468Y-12124174D02*
X15593991Y-12143222D01*
X15593991Y-12143222D02*
X15593991Y-12162269D01*
X15593991Y-12162269D02*
X15498753Y-12181317D01*
X15670182Y-12238460D02*
X15689230Y-12247984D01*
X15689230Y-12247984D02*
X15727325Y-12247984D01*
X15727325Y-12247984D02*
X15746372Y-12238460D01*
X15746372Y-12238460D02*
X15755896Y-12219412D01*
X15755896Y-12219412D02*
X15755896Y-12209888D01*
X15755896Y-12209888D02*
X15746372Y-12190841D01*
X15746372Y-12190841D02*
X15727325Y-12181317D01*
X15727325Y-12181317D02*
X15698753Y-12181317D01*
X15698753Y-12181317D02*
X15679706Y-12171793D01*
X15679706Y-12171793D02*
X15670182Y-12152746D01*
X15670182Y-12152746D02*
X15670182Y-12143222D01*
X15670182Y-12143222D02*
X15679706Y-12124174D01*
X15679706Y-12124174D02*
X15698753Y-12114650D01*
X15698753Y-12114650D02*
X15727325Y-12114650D01*
X15727325Y-12114650D02*
X15746372Y-12124174D01*
X15822563Y-12324174D02*
X15832087Y-12314650D01*
X15832087Y-12314650D02*
X15851134Y-12286079D01*
X15851134Y-12286079D02*
X15860658Y-12267031D01*
X15860658Y-12267031D02*
X15870182Y-12238460D01*
X15870182Y-12238460D02*
X15879706Y-12190841D01*
X15879706Y-12190841D02*
X15879706Y-12152746D01*
X15879706Y-12152746D02*
X15870182Y-12105127D01*
X15870182Y-12105127D02*
X15860658Y-12076555D01*
X15860658Y-12076555D02*
X15851134Y-12057508D01*
X15851134Y-12057508D02*
X15832087Y-12028936D01*
X15832087Y-12028936D02*
X15822563Y-12019412D01*
D12*
X10997500Y-12370500D02*
X10997500Y-12470500D01*
X10947500Y-12420500D02*
X11047500Y-12420500D01*
D11*
X11413039Y-12511984D02*
X11298753Y-12511984D01*
X11355896Y-12511984D02*
X11355896Y-12311984D01*
X11355896Y-12311984D02*
X11336848Y-12340555D01*
X11336848Y-12340555D02*
X11317801Y-12359603D01*
X11317801Y-12359603D02*
X11298753Y-12369127D01*
X11498753Y-12492936D02*
X11508277Y-12502460D01*
X11508277Y-12502460D02*
X11498753Y-12511984D01*
X11498753Y-12511984D02*
X11489229Y-12502460D01*
X11489229Y-12502460D02*
X11498753Y-12492936D01*
X11498753Y-12492936D02*
X11498753Y-12511984D01*
X11632086Y-12311984D02*
X11651134Y-12311984D01*
X11651134Y-12311984D02*
X11670182Y-12321508D01*
X11670182Y-12321508D02*
X11679705Y-12331031D01*
X11679705Y-12331031D02*
X11689229Y-12350079D01*
X11689229Y-12350079D02*
X11698753Y-12388174D01*
X11698753Y-12388174D02*
X11698753Y-12435793D01*
X11698753Y-12435793D02*
X11689229Y-12473888D01*
X11689229Y-12473888D02*
X11679705Y-12492936D01*
X11679705Y-12492936D02*
X11670182Y-12502460D01*
X11670182Y-12502460D02*
X11651134Y-12511984D01*
X11651134Y-12511984D02*
X11632086Y-12511984D01*
X11632086Y-12511984D02*
X11613039Y-12502460D01*
X11613039Y-12502460D02*
X11603515Y-12492936D01*
X11603515Y-12492936D02*
X11593991Y-12473888D01*
X11593991Y-12473888D02*
X11584467Y-12435793D01*
X11584467Y-12435793D02*
X11584467Y-12388174D01*
X11584467Y-12388174D02*
X11593991Y-12350079D01*
X11593991Y-12350079D02*
X11603515Y-12331031D01*
X11603515Y-12331031D02*
X11613039Y-12321508D01*
X11613039Y-12321508D02*
X11632086Y-12311984D01*
X11822562Y-12311984D02*
X11841610Y-12311984D01*
X11841610Y-12311984D02*
X11860658Y-12321508D01*
X11860658Y-12321508D02*
X11870182Y-12331031D01*
X11870182Y-12331031D02*
X11879705Y-12350079D01*
X11879705Y-12350079D02*
X11889229Y-12388174D01*
X11889229Y-12388174D02*
X11889229Y-12435793D01*
X11889229Y-12435793D02*
X11879705Y-12473888D01*
X11879705Y-12473888D02*
X11870182Y-12492936D01*
X11870182Y-12492936D02*
X11860658Y-12502460D01*
X11860658Y-12502460D02*
X11841610Y-12511984D01*
X11841610Y-12511984D02*
X11822562Y-12511984D01*
X11822562Y-12511984D02*
X11803515Y-12502460D01*
X11803515Y-12502460D02*
X11793991Y-12492936D01*
X11793991Y-12492936D02*
X11784467Y-12473888D01*
X11784467Y-12473888D02*
X11774943Y-12435793D01*
X11774943Y-12435793D02*
X11774943Y-12388174D01*
X11774943Y-12388174D02*
X11784467Y-12350079D01*
X11784467Y-12350079D02*
X11793991Y-12331031D01*
X11793991Y-12331031D02*
X11803515Y-12321508D01*
X11803515Y-12321508D02*
X11822562Y-12311984D01*
X12013039Y-12311984D02*
X12032086Y-12311984D01*
X12032086Y-12311984D02*
X12051134Y-12321508D01*
X12051134Y-12321508D02*
X12060658Y-12331031D01*
X12060658Y-12331031D02*
X12070182Y-12350079D01*
X12070182Y-12350079D02*
X12079705Y-12388174D01*
X12079705Y-12388174D02*
X12079705Y-12435793D01*
X12079705Y-12435793D02*
X12070182Y-12473888D01*
X12070182Y-12473888D02*
X12060658Y-12492936D01*
X12060658Y-12492936D02*
X12051134Y-12502460D01*
X12051134Y-12502460D02*
X12032086Y-12511984D01*
X12032086Y-12511984D02*
X12013039Y-12511984D01*
X12013039Y-12511984D02*
X11993991Y-12502460D01*
X11993991Y-12502460D02*
X11984467Y-12492936D01*
X11984467Y-12492936D02*
X11974943Y-12473888D01*
X11974943Y-12473888D02*
X11965420Y-12435793D01*
X11965420Y-12435793D02*
X11965420Y-12388174D01*
X11965420Y-12388174D02*
X11974943Y-12350079D01*
X11974943Y-12350079D02*
X11984467Y-12331031D01*
X11984467Y-12331031D02*
X11993991Y-12321508D01*
X11993991Y-12321508D02*
X12013039Y-12311984D01*
X12165420Y-12511984D02*
X12165420Y-12378650D01*
X12165420Y-12397698D02*
X12174943Y-12388174D01*
X12174943Y-12388174D02*
X12193991Y-12378650D01*
X12193991Y-12378650D02*
X12222563Y-12378650D01*
X12222563Y-12378650D02*
X12241610Y-12388174D01*
X12241610Y-12388174D02*
X12251134Y-12407222D01*
X12251134Y-12407222D02*
X12251134Y-12511984D01*
X12251134Y-12407222D02*
X12260658Y-12388174D01*
X12260658Y-12388174D02*
X12279705Y-12378650D01*
X12279705Y-12378650D02*
X12308277Y-12378650D01*
X12308277Y-12378650D02*
X12327324Y-12388174D01*
X12327324Y-12388174D02*
X12336848Y-12407222D01*
X12336848Y-12407222D02*
X12336848Y-12511984D01*
X12432086Y-12511984D02*
X12432086Y-12378650D01*
X12432086Y-12397698D02*
X12441610Y-12388174D01*
X12441610Y-12388174D02*
X12460658Y-12378650D01*
X12460658Y-12378650D02*
X12489229Y-12378650D01*
X12489229Y-12378650D02*
X12508277Y-12388174D01*
X12508277Y-12388174D02*
X12517801Y-12407222D01*
X12517801Y-12407222D02*
X12517801Y-12511984D01*
X12517801Y-12407222D02*
X12527324Y-12388174D01*
X12527324Y-12388174D02*
X12546372Y-12378650D01*
X12546372Y-12378650D02*
X12574943Y-12378650D01*
X12574943Y-12378650D02*
X12593991Y-12388174D01*
X12593991Y-12388174D02*
X12603515Y-12407222D01*
X12603515Y-12407222D02*
X12603515Y-12511984D01*
X12993991Y-12302460D02*
X12822563Y-12559603D01*
X13251134Y-12311984D02*
X13270182Y-12311984D01*
X13270182Y-12311984D02*
X13289229Y-12321508D01*
X13289229Y-12321508D02*
X13298753Y-12331031D01*
X13298753Y-12331031D02*
X13308277Y-12350079D01*
X13308277Y-12350079D02*
X13317801Y-12388174D01*
X13317801Y-12388174D02*
X13317801Y-12435793D01*
X13317801Y-12435793D02*
X13308277Y-12473888D01*
X13308277Y-12473888D02*
X13298753Y-12492936D01*
X13298753Y-12492936D02*
X13289229Y-12502460D01*
X13289229Y-12502460D02*
X13270182Y-12511984D01*
X13270182Y-12511984D02*
X13251134Y-12511984D01*
X13251134Y-12511984D02*
X13232086Y-12502460D01*
X13232086Y-12502460D02*
X13222563Y-12492936D01*
X13222563Y-12492936D02*
X13213039Y-12473888D01*
X13213039Y-12473888D02*
X13203515Y-12435793D01*
X13203515Y-12435793D02*
X13203515Y-12388174D01*
X13203515Y-12388174D02*
X13213039Y-12350079D01*
X13213039Y-12350079D02*
X13222563Y-12331031D01*
X13222563Y-12331031D02*
X13232086Y-12321508D01*
X13232086Y-12321508D02*
X13251134Y-12311984D01*
X13403515Y-12492936D02*
X13413039Y-12502460D01*
X13413039Y-12502460D02*
X13403515Y-12511984D01*
X13403515Y-12511984D02*
X13393991Y-12502460D01*
X13393991Y-12502460D02*
X13403515Y-12492936D01*
X13403515Y-12492936D02*
X13403515Y-12511984D01*
X13536848Y-12311984D02*
X13555896Y-12311984D01*
X13555896Y-12311984D02*
X13574944Y-12321508D01*
X13574944Y-12321508D02*
X13584467Y-12331031D01*
X13584467Y-12331031D02*
X13593991Y-12350079D01*
X13593991Y-12350079D02*
X13603515Y-12388174D01*
X13603515Y-12388174D02*
X13603515Y-12435793D01*
X13603515Y-12435793D02*
X13593991Y-12473888D01*
X13593991Y-12473888D02*
X13584467Y-12492936D01*
X13584467Y-12492936D02*
X13574944Y-12502460D01*
X13574944Y-12502460D02*
X13555896Y-12511984D01*
X13555896Y-12511984D02*
X13536848Y-12511984D01*
X13536848Y-12511984D02*
X13517801Y-12502460D01*
X13517801Y-12502460D02*
X13508277Y-12492936D01*
X13508277Y-12492936D02*
X13498753Y-12473888D01*
X13498753Y-12473888D02*
X13489229Y-12435793D01*
X13489229Y-12435793D02*
X13489229Y-12388174D01*
X13489229Y-12388174D02*
X13498753Y-12350079D01*
X13498753Y-12350079D02*
X13508277Y-12331031D01*
X13508277Y-12331031D02*
X13517801Y-12321508D01*
X13517801Y-12321508D02*
X13536848Y-12311984D01*
X13670182Y-12311984D02*
X13793991Y-12311984D01*
X13793991Y-12311984D02*
X13727325Y-12388174D01*
X13727325Y-12388174D02*
X13755896Y-12388174D01*
X13755896Y-12388174D02*
X13774944Y-12397698D01*
X13774944Y-12397698D02*
X13784467Y-12407222D01*
X13784467Y-12407222D02*
X13793991Y-12426269D01*
X13793991Y-12426269D02*
X13793991Y-12473888D01*
X13793991Y-12473888D02*
X13784467Y-12492936D01*
X13784467Y-12492936D02*
X13774944Y-12502460D01*
X13774944Y-12502460D02*
X13755896Y-12511984D01*
X13755896Y-12511984D02*
X13698753Y-12511984D01*
X13698753Y-12511984D02*
X13679706Y-12502460D01*
X13679706Y-12502460D02*
X13670182Y-12492936D01*
X13889229Y-12511984D02*
X13927325Y-12511984D01*
X13927325Y-12511984D02*
X13946372Y-12502460D01*
X13946372Y-12502460D02*
X13955896Y-12492936D01*
X13955896Y-12492936D02*
X13974944Y-12464365D01*
X13974944Y-12464365D02*
X13984467Y-12426269D01*
X13984467Y-12426269D02*
X13984467Y-12350079D01*
X13984467Y-12350079D02*
X13974944Y-12331031D01*
X13974944Y-12331031D02*
X13965420Y-12321508D01*
X13965420Y-12321508D02*
X13946372Y-12311984D01*
X13946372Y-12311984D02*
X13908277Y-12311984D01*
X13908277Y-12311984D02*
X13889229Y-12321508D01*
X13889229Y-12321508D02*
X13879706Y-12331031D01*
X13879706Y-12331031D02*
X13870182Y-12350079D01*
X13870182Y-12350079D02*
X13870182Y-12397698D01*
X13870182Y-12397698D02*
X13879706Y-12416746D01*
X13879706Y-12416746D02*
X13889229Y-12426269D01*
X13889229Y-12426269D02*
X13908277Y-12435793D01*
X13908277Y-12435793D02*
X13946372Y-12435793D01*
X13946372Y-12435793D02*
X13965420Y-12426269D01*
X13965420Y-12426269D02*
X13974944Y-12416746D01*
X13974944Y-12416746D02*
X13984467Y-12397698D01*
X14155896Y-12378650D02*
X14155896Y-12511984D01*
X14108277Y-12302460D02*
X14060658Y-12445317D01*
X14060658Y-12445317D02*
X14184467Y-12445317D01*
X14251134Y-12311984D02*
X14251134Y-12350079D01*
X14327325Y-12311984D02*
X14327325Y-12350079D01*
X14622563Y-12588174D02*
X14613039Y-12578650D01*
X14613039Y-12578650D02*
X14593991Y-12550079D01*
X14593991Y-12550079D02*
X14584468Y-12531031D01*
X14584468Y-12531031D02*
X14574944Y-12502460D01*
X14574944Y-12502460D02*
X14565420Y-12454841D01*
X14565420Y-12454841D02*
X14565420Y-12416746D01*
X14565420Y-12416746D02*
X14574944Y-12369127D01*
X14574944Y-12369127D02*
X14584468Y-12340555D01*
X14584468Y-12340555D02*
X14593991Y-12321508D01*
X14593991Y-12321508D02*
X14613039Y-12292936D01*
X14613039Y-12292936D02*
X14622563Y-12283412D01*
X14679706Y-12311984D02*
X14803515Y-12311984D01*
X14803515Y-12311984D02*
X14736848Y-12388174D01*
X14736848Y-12388174D02*
X14765420Y-12388174D01*
X14765420Y-12388174D02*
X14784468Y-12397698D01*
X14784468Y-12397698D02*
X14793991Y-12407222D01*
X14793991Y-12407222D02*
X14803515Y-12426269D01*
X14803515Y-12426269D02*
X14803515Y-12473888D01*
X14803515Y-12473888D02*
X14793991Y-12492936D01*
X14793991Y-12492936D02*
X14784468Y-12502460D01*
X14784468Y-12502460D02*
X14765420Y-12511984D01*
X14765420Y-12511984D02*
X14708277Y-12511984D01*
X14708277Y-12511984D02*
X14689229Y-12502460D01*
X14689229Y-12502460D02*
X14679706Y-12492936D01*
X15041610Y-12511984D02*
X15041610Y-12311984D01*
X15127325Y-12511984D02*
X15127325Y-12407222D01*
X15127325Y-12407222D02*
X15117801Y-12388174D01*
X15117801Y-12388174D02*
X15098753Y-12378650D01*
X15098753Y-12378650D02*
X15070182Y-12378650D01*
X15070182Y-12378650D02*
X15051134Y-12388174D01*
X15051134Y-12388174D02*
X15041610Y-12397698D01*
X15251134Y-12511984D02*
X15232087Y-12502460D01*
X15232087Y-12502460D02*
X15222563Y-12492936D01*
X15222563Y-12492936D02*
X15213039Y-12473888D01*
X15213039Y-12473888D02*
X15213039Y-12416746D01*
X15213039Y-12416746D02*
X15222563Y-12397698D01*
X15222563Y-12397698D02*
X15232087Y-12388174D01*
X15232087Y-12388174D02*
X15251134Y-12378650D01*
X15251134Y-12378650D02*
X15279706Y-12378650D01*
X15279706Y-12378650D02*
X15298753Y-12388174D01*
X15298753Y-12388174D02*
X15308277Y-12397698D01*
X15308277Y-12397698D02*
X15317801Y-12416746D01*
X15317801Y-12416746D02*
X15317801Y-12473888D01*
X15317801Y-12473888D02*
X15308277Y-12492936D01*
X15308277Y-12492936D02*
X15298753Y-12502460D01*
X15298753Y-12502460D02*
X15279706Y-12511984D01*
X15279706Y-12511984D02*
X15251134Y-12511984D01*
X15432087Y-12511984D02*
X15413039Y-12502460D01*
X15413039Y-12502460D02*
X15403515Y-12483412D01*
X15403515Y-12483412D02*
X15403515Y-12311984D01*
X15584468Y-12502460D02*
X15565420Y-12511984D01*
X15565420Y-12511984D02*
X15527325Y-12511984D01*
X15527325Y-12511984D02*
X15508277Y-12502460D01*
X15508277Y-12502460D02*
X15498753Y-12483412D01*
X15498753Y-12483412D02*
X15498753Y-12407222D01*
X15498753Y-12407222D02*
X15508277Y-12388174D01*
X15508277Y-12388174D02*
X15527325Y-12378650D01*
X15527325Y-12378650D02*
X15565420Y-12378650D01*
X15565420Y-12378650D02*
X15584468Y-12388174D01*
X15584468Y-12388174D02*
X15593991Y-12407222D01*
X15593991Y-12407222D02*
X15593991Y-12426269D01*
X15593991Y-12426269D02*
X15498753Y-12445317D01*
X15670182Y-12502460D02*
X15689230Y-12511984D01*
X15689230Y-12511984D02*
X15727325Y-12511984D01*
X15727325Y-12511984D02*
X15746372Y-12502460D01*
X15746372Y-12502460D02*
X15755896Y-12483412D01*
X15755896Y-12483412D02*
X15755896Y-12473888D01*
X15755896Y-12473888D02*
X15746372Y-12454841D01*
X15746372Y-12454841D02*
X15727325Y-12445317D01*
X15727325Y-12445317D02*
X15698753Y-12445317D01*
X15698753Y-12445317D02*
X15679706Y-12435793D01*
X15679706Y-12435793D02*
X15670182Y-12416746D01*
X15670182Y-12416746D02*
X15670182Y-12407222D01*
X15670182Y-12407222D02*
X15679706Y-12388174D01*
X15679706Y-12388174D02*
X15698753Y-12378650D01*
X15698753Y-12378650D02*
X15727325Y-12378650D01*
X15727325Y-12378650D02*
X15746372Y-12388174D01*
X15822563Y-12588174D02*
X15832087Y-12578650D01*
X15832087Y-12578650D02*
X15851134Y-12550079D01*
X15851134Y-12550079D02*
X15860658Y-12531031D01*
X15860658Y-12531031D02*
X15870182Y-12502460D01*
X15870182Y-12502460D02*
X15879706Y-12454841D01*
X15879706Y-12454841D02*
X15879706Y-12416746D01*
X15879706Y-12416746D02*
X15870182Y-12369127D01*
X15870182Y-12369127D02*
X15860658Y-12340555D01*
X15860658Y-12340555D02*
X15851134Y-12321508D01*
X15851134Y-12321508D02*
X15832087Y-12292936D01*
X15832087Y-12292936D02*
X15822563Y-12283412D01*
D13*
X11032621Y-12720421D02*
X11032621Y-12648579D01*
X10960779Y-12648579D01*
X10960779Y-12720421D01*
X11032621Y-12720421D01*
D11*
X11413039Y-12775984D02*
X11298753Y-12775984D01*
X11355896Y-12775984D02*
X11355896Y-12575984D01*
X11355896Y-12575984D02*
X11336848Y-12604555D01*
X11336848Y-12604555D02*
X11317801Y-12623603D01*
X11317801Y-12623603D02*
X11298753Y-12633127D01*
X11498753Y-12756936D02*
X11508277Y-12766460D01*
X11508277Y-12766460D02*
X11498753Y-12775984D01*
X11498753Y-12775984D02*
X11489229Y-12766460D01*
X11489229Y-12766460D02*
X11498753Y-12756936D01*
X11498753Y-12756936D02*
X11498753Y-12775984D01*
X11632086Y-12575984D02*
X11651134Y-12575984D01*
X11651134Y-12575984D02*
X11670182Y-12585508D01*
X11670182Y-12585508D02*
X11679705Y-12595031D01*
X11679705Y-12595031D02*
X11689229Y-12614079D01*
X11689229Y-12614079D02*
X11698753Y-12652174D01*
X11698753Y-12652174D02*
X11698753Y-12699793D01*
X11698753Y-12699793D02*
X11689229Y-12737888D01*
X11689229Y-12737888D02*
X11679705Y-12756936D01*
X11679705Y-12756936D02*
X11670182Y-12766460D01*
X11670182Y-12766460D02*
X11651134Y-12775984D01*
X11651134Y-12775984D02*
X11632086Y-12775984D01*
X11632086Y-12775984D02*
X11613039Y-12766460D01*
X11613039Y-12766460D02*
X11603515Y-12756936D01*
X11603515Y-12756936D02*
X11593991Y-12737888D01*
X11593991Y-12737888D02*
X11584467Y-12699793D01*
X11584467Y-12699793D02*
X11584467Y-12652174D01*
X11584467Y-12652174D02*
X11593991Y-12614079D01*
X11593991Y-12614079D02*
X11603515Y-12595031D01*
X11603515Y-12595031D02*
X11613039Y-12585508D01*
X11613039Y-12585508D02*
X11632086Y-12575984D01*
X11889229Y-12775984D02*
X11774943Y-12775984D01*
X11832086Y-12775984D02*
X11832086Y-12575984D01*
X11832086Y-12575984D02*
X11813039Y-12604555D01*
X11813039Y-12604555D02*
X11793991Y-12623603D01*
X11793991Y-12623603D02*
X11774943Y-12633127D01*
X12060658Y-12575984D02*
X12022562Y-12575984D01*
X12022562Y-12575984D02*
X12003515Y-12585508D01*
X12003515Y-12585508D02*
X11993991Y-12595031D01*
X11993991Y-12595031D02*
X11974943Y-12623603D01*
X11974943Y-12623603D02*
X11965420Y-12661698D01*
X11965420Y-12661698D02*
X11965420Y-12737888D01*
X11965420Y-12737888D02*
X11974943Y-12756936D01*
X11974943Y-12756936D02*
X11984467Y-12766460D01*
X11984467Y-12766460D02*
X12003515Y-12775984D01*
X12003515Y-12775984D02*
X12041610Y-12775984D01*
X12041610Y-12775984D02*
X12060658Y-12766460D01*
X12060658Y-12766460D02*
X12070182Y-12756936D01*
X12070182Y-12756936D02*
X12079705Y-12737888D01*
X12079705Y-12737888D02*
X12079705Y-12690269D01*
X12079705Y-12690269D02*
X12070182Y-12671222D01*
X12070182Y-12671222D02*
X12060658Y-12661698D01*
X12060658Y-12661698D02*
X12041610Y-12652174D01*
X12041610Y-12652174D02*
X12003515Y-12652174D01*
X12003515Y-12652174D02*
X11984467Y-12661698D01*
X11984467Y-12661698D02*
X11974943Y-12671222D01*
X11974943Y-12671222D02*
X11965420Y-12690269D01*
X12165420Y-12775984D02*
X12165420Y-12642650D01*
X12165420Y-12661698D02*
X12174943Y-12652174D01*
X12174943Y-12652174D02*
X12193991Y-12642650D01*
X12193991Y-12642650D02*
X12222563Y-12642650D01*
X12222563Y-12642650D02*
X12241610Y-12652174D01*
X12241610Y-12652174D02*
X12251134Y-12671222D01*
X12251134Y-12671222D02*
X12251134Y-12775984D01*
X12251134Y-12671222D02*
X12260658Y-12652174D01*
X12260658Y-12652174D02*
X12279705Y-12642650D01*
X12279705Y-12642650D02*
X12308277Y-12642650D01*
X12308277Y-12642650D02*
X12327324Y-12652174D01*
X12327324Y-12652174D02*
X12336848Y-12671222D01*
X12336848Y-12671222D02*
X12336848Y-12775984D01*
X12432086Y-12775984D02*
X12432086Y-12642650D01*
X12432086Y-12661698D02*
X12441610Y-12652174D01*
X12441610Y-12652174D02*
X12460658Y-12642650D01*
X12460658Y-12642650D02*
X12489229Y-12642650D01*
X12489229Y-12642650D02*
X12508277Y-12652174D01*
X12508277Y-12652174D02*
X12517801Y-12671222D01*
X12517801Y-12671222D02*
X12517801Y-12775984D01*
X12517801Y-12671222D02*
X12527324Y-12652174D01*
X12527324Y-12652174D02*
X12546372Y-12642650D01*
X12546372Y-12642650D02*
X12574943Y-12642650D01*
X12574943Y-12642650D02*
X12593991Y-12652174D01*
X12593991Y-12652174D02*
X12603515Y-12671222D01*
X12603515Y-12671222D02*
X12603515Y-12775984D01*
X12993991Y-12566460D02*
X12822563Y-12823603D01*
X13251134Y-12575984D02*
X13270182Y-12575984D01*
X13270182Y-12575984D02*
X13289229Y-12585508D01*
X13289229Y-12585508D02*
X13298753Y-12595031D01*
X13298753Y-12595031D02*
X13308277Y-12614079D01*
X13308277Y-12614079D02*
X13317801Y-12652174D01*
X13317801Y-12652174D02*
X13317801Y-12699793D01*
X13317801Y-12699793D02*
X13308277Y-12737888D01*
X13308277Y-12737888D02*
X13298753Y-12756936D01*
X13298753Y-12756936D02*
X13289229Y-12766460D01*
X13289229Y-12766460D02*
X13270182Y-12775984D01*
X13270182Y-12775984D02*
X13251134Y-12775984D01*
X13251134Y-12775984D02*
X13232086Y-12766460D01*
X13232086Y-12766460D02*
X13222563Y-12756936D01*
X13222563Y-12756936D02*
X13213039Y-12737888D01*
X13213039Y-12737888D02*
X13203515Y-12699793D01*
X13203515Y-12699793D02*
X13203515Y-12652174D01*
X13203515Y-12652174D02*
X13213039Y-12614079D01*
X13213039Y-12614079D02*
X13222563Y-12595031D01*
X13222563Y-12595031D02*
X13232086Y-12585508D01*
X13232086Y-12585508D02*
X13251134Y-12575984D01*
X13403515Y-12756936D02*
X13413039Y-12766460D01*
X13413039Y-12766460D02*
X13403515Y-12775984D01*
X13403515Y-12775984D02*
X13393991Y-12766460D01*
X13393991Y-12766460D02*
X13403515Y-12756936D01*
X13403515Y-12756936D02*
X13403515Y-12775984D01*
X13536848Y-12575984D02*
X13555896Y-12575984D01*
X13555896Y-12575984D02*
X13574944Y-12585508D01*
X13574944Y-12585508D02*
X13584467Y-12595031D01*
X13584467Y-12595031D02*
X13593991Y-12614079D01*
X13593991Y-12614079D02*
X13603515Y-12652174D01*
X13603515Y-12652174D02*
X13603515Y-12699793D01*
X13603515Y-12699793D02*
X13593991Y-12737888D01*
X13593991Y-12737888D02*
X13584467Y-12756936D01*
X13584467Y-12756936D02*
X13574944Y-12766460D01*
X13574944Y-12766460D02*
X13555896Y-12775984D01*
X13555896Y-12775984D02*
X13536848Y-12775984D01*
X13536848Y-12775984D02*
X13517801Y-12766460D01*
X13517801Y-12766460D02*
X13508277Y-12756936D01*
X13508277Y-12756936D02*
X13498753Y-12737888D01*
X13498753Y-12737888D02*
X13489229Y-12699793D01*
X13489229Y-12699793D02*
X13489229Y-12652174D01*
X13489229Y-12652174D02*
X13498753Y-12614079D01*
X13498753Y-12614079D02*
X13508277Y-12595031D01*
X13508277Y-12595031D02*
X13517801Y-12585508D01*
X13517801Y-12585508D02*
X13536848Y-12575984D01*
X13774944Y-12642650D02*
X13774944Y-12775984D01*
X13727325Y-12566460D02*
X13679706Y-12709317D01*
X13679706Y-12709317D02*
X13803515Y-12709317D01*
X13917801Y-12575984D02*
X13936848Y-12575984D01*
X13936848Y-12575984D02*
X13955896Y-12585508D01*
X13955896Y-12585508D02*
X13965420Y-12595031D01*
X13965420Y-12595031D02*
X13974944Y-12614079D01*
X13974944Y-12614079D02*
X13984467Y-12652174D01*
X13984467Y-12652174D02*
X13984467Y-12699793D01*
X13984467Y-12699793D02*
X13974944Y-12737888D01*
X13974944Y-12737888D02*
X13965420Y-12756936D01*
X13965420Y-12756936D02*
X13955896Y-12766460D01*
X13955896Y-12766460D02*
X13936848Y-12775984D01*
X13936848Y-12775984D02*
X13917801Y-12775984D01*
X13917801Y-12775984D02*
X13898753Y-12766460D01*
X13898753Y-12766460D02*
X13889229Y-12756936D01*
X13889229Y-12756936D02*
X13879706Y-12737888D01*
X13879706Y-12737888D02*
X13870182Y-12699793D01*
X13870182Y-12699793D02*
X13870182Y-12652174D01*
X13870182Y-12652174D02*
X13879706Y-12614079D01*
X13879706Y-12614079D02*
X13889229Y-12595031D01*
X13889229Y-12595031D02*
X13898753Y-12585508D01*
X13898753Y-12585508D02*
X13917801Y-12575984D01*
X14108277Y-12575984D02*
X14127325Y-12575984D01*
X14127325Y-12575984D02*
X14146372Y-12585508D01*
X14146372Y-12585508D02*
X14155896Y-12595031D01*
X14155896Y-12595031D02*
X14165420Y-12614079D01*
X14165420Y-12614079D02*
X14174944Y-12652174D01*
X14174944Y-12652174D02*
X14174944Y-12699793D01*
X14174944Y-12699793D02*
X14165420Y-12737888D01*
X14165420Y-12737888D02*
X14155896Y-12756936D01*
X14155896Y-12756936D02*
X14146372Y-12766460D01*
X14146372Y-12766460D02*
X14127325Y-12775984D01*
X14127325Y-12775984D02*
X14108277Y-12775984D01*
X14108277Y-12775984D02*
X14089229Y-12766460D01*
X14089229Y-12766460D02*
X14079706Y-12756936D01*
X14079706Y-12756936D02*
X14070182Y-12737888D01*
X14070182Y-12737888D02*
X14060658Y-12699793D01*
X14060658Y-12699793D02*
X14060658Y-12652174D01*
X14060658Y-12652174D02*
X14070182Y-12614079D01*
X14070182Y-12614079D02*
X14079706Y-12595031D01*
X14079706Y-12595031D02*
X14089229Y-12585508D01*
X14089229Y-12585508D02*
X14108277Y-12575984D01*
X14251134Y-12575984D02*
X14251134Y-12614079D01*
X14327325Y-12575984D02*
X14327325Y-12614079D01*
X14622563Y-12852174D02*
X14613039Y-12842650D01*
X14613039Y-12842650D02*
X14593991Y-12814079D01*
X14593991Y-12814079D02*
X14584468Y-12795031D01*
X14584468Y-12795031D02*
X14574944Y-12766460D01*
X14574944Y-12766460D02*
X14565420Y-12718841D01*
X14565420Y-12718841D02*
X14565420Y-12680746D01*
X14565420Y-12680746D02*
X14574944Y-12633127D01*
X14574944Y-12633127D02*
X14584468Y-12604555D01*
X14584468Y-12604555D02*
X14593991Y-12585508D01*
X14593991Y-12585508D02*
X14613039Y-12556936D01*
X14613039Y-12556936D02*
X14622563Y-12547412D01*
X14679706Y-12575984D02*
X14803515Y-12575984D01*
X14803515Y-12575984D02*
X14736848Y-12652174D01*
X14736848Y-12652174D02*
X14765420Y-12652174D01*
X14765420Y-12652174D02*
X14784468Y-12661698D01*
X14784468Y-12661698D02*
X14793991Y-12671222D01*
X14793991Y-12671222D02*
X14803515Y-12690269D01*
X14803515Y-12690269D02*
X14803515Y-12737888D01*
X14803515Y-12737888D02*
X14793991Y-12756936D01*
X14793991Y-12756936D02*
X14784468Y-12766460D01*
X14784468Y-12766460D02*
X14765420Y-12775984D01*
X14765420Y-12775984D02*
X14708277Y-12775984D01*
X14708277Y-12775984D02*
X14689229Y-12766460D01*
X14689229Y-12766460D02*
X14679706Y-12756936D01*
X14917801Y-12661698D02*
X14898753Y-12652174D01*
X14898753Y-12652174D02*
X14889229Y-12642650D01*
X14889229Y-12642650D02*
X14879706Y-12623603D01*
X14879706Y-12623603D02*
X14879706Y-12614079D01*
X14879706Y-12614079D02*
X14889229Y-12595031D01*
X14889229Y-12595031D02*
X14898753Y-12585508D01*
X14898753Y-12585508D02*
X14917801Y-12575984D01*
X14917801Y-12575984D02*
X14955896Y-12575984D01*
X14955896Y-12575984D02*
X14974944Y-12585508D01*
X14974944Y-12585508D02*
X14984468Y-12595031D01*
X14984468Y-12595031D02*
X14993991Y-12614079D01*
X14993991Y-12614079D02*
X14993991Y-12623603D01*
X14993991Y-12623603D02*
X14984468Y-12642650D01*
X14984468Y-12642650D02*
X14974944Y-12652174D01*
X14974944Y-12652174D02*
X14955896Y-12661698D01*
X14955896Y-12661698D02*
X14917801Y-12661698D01*
X14917801Y-12661698D02*
X14898753Y-12671222D01*
X14898753Y-12671222D02*
X14889229Y-12680746D01*
X14889229Y-12680746D02*
X14879706Y-12699793D01*
X14879706Y-12699793D02*
X14879706Y-12737888D01*
X14879706Y-12737888D02*
X14889229Y-12756936D01*
X14889229Y-12756936D02*
X14898753Y-12766460D01*
X14898753Y-12766460D02*
X14917801Y-12775984D01*
X14917801Y-12775984D02*
X14955896Y-12775984D01*
X14955896Y-12775984D02*
X14974944Y-12766460D01*
X14974944Y-12766460D02*
X14984468Y-12756936D01*
X14984468Y-12756936D02*
X14993991Y-12737888D01*
X14993991Y-12737888D02*
X14993991Y-12699793D01*
X14993991Y-12699793D02*
X14984468Y-12680746D01*
X14984468Y-12680746D02*
X14974944Y-12671222D01*
X14974944Y-12671222D02*
X14955896Y-12661698D01*
X15232087Y-12775984D02*
X15232087Y-12575984D01*
X15317801Y-12775984D02*
X15317801Y-12671222D01*
X15317801Y-12671222D02*
X15308277Y-12652174D01*
X15308277Y-12652174D02*
X15289230Y-12642650D01*
X15289230Y-12642650D02*
X15260658Y-12642650D01*
X15260658Y-12642650D02*
X15241610Y-12652174D01*
X15241610Y-12652174D02*
X15232087Y-12661698D01*
X15441610Y-12775984D02*
X15422563Y-12766460D01*
X15422563Y-12766460D02*
X15413039Y-12756936D01*
X15413039Y-12756936D02*
X15403515Y-12737888D01*
X15403515Y-12737888D02*
X15403515Y-12680746D01*
X15403515Y-12680746D02*
X15413039Y-12661698D01*
X15413039Y-12661698D02*
X15422563Y-12652174D01*
X15422563Y-12652174D02*
X15441610Y-12642650D01*
X15441610Y-12642650D02*
X15470182Y-12642650D01*
X15470182Y-12642650D02*
X15489230Y-12652174D01*
X15489230Y-12652174D02*
X15498753Y-12661698D01*
X15498753Y-12661698D02*
X15508277Y-12680746D01*
X15508277Y-12680746D02*
X15508277Y-12737888D01*
X15508277Y-12737888D02*
X15498753Y-12756936D01*
X15498753Y-12756936D02*
X15489230Y-12766460D01*
X15489230Y-12766460D02*
X15470182Y-12775984D01*
X15470182Y-12775984D02*
X15441610Y-12775984D01*
X15622563Y-12775984D02*
X15603515Y-12766460D01*
X15603515Y-12766460D02*
X15593991Y-12747412D01*
X15593991Y-12747412D02*
X15593991Y-12575984D01*
X15774944Y-12766460D02*
X15755896Y-12775984D01*
X15755896Y-12775984D02*
X15717801Y-12775984D01*
X15717801Y-12775984D02*
X15698753Y-12766460D01*
X15698753Y-12766460D02*
X15689230Y-12747412D01*
X15689230Y-12747412D02*
X15689230Y-12671222D01*
X15689230Y-12671222D02*
X15698753Y-12652174D01*
X15698753Y-12652174D02*
X15717801Y-12642650D01*
X15717801Y-12642650D02*
X15755896Y-12642650D01*
X15755896Y-12642650D02*
X15774944Y-12652174D01*
X15774944Y-12652174D02*
X15784468Y-12671222D01*
X15784468Y-12671222D02*
X15784468Y-12690269D01*
X15784468Y-12690269D02*
X15689230Y-12709317D01*
X15860658Y-12766460D02*
X15879706Y-12775984D01*
X15879706Y-12775984D02*
X15917801Y-12775984D01*
X15917801Y-12775984D02*
X15936849Y-12766460D01*
X15936849Y-12766460D02*
X15946372Y-12747412D01*
X15946372Y-12747412D02*
X15946372Y-12737888D01*
X15946372Y-12737888D02*
X15936849Y-12718841D01*
X15936849Y-12718841D02*
X15917801Y-12709317D01*
X15917801Y-12709317D02*
X15889230Y-12709317D01*
X15889230Y-12709317D02*
X15870182Y-12699793D01*
X15870182Y-12699793D02*
X15860658Y-12680746D01*
X15860658Y-12680746D02*
X15860658Y-12671222D01*
X15860658Y-12671222D02*
X15870182Y-12652174D01*
X15870182Y-12652174D02*
X15889230Y-12642650D01*
X15889230Y-12642650D02*
X15917801Y-12642650D01*
X15917801Y-12642650D02*
X15936849Y-12652174D01*
X16013039Y-12852174D02*
X16022563Y-12842650D01*
X16022563Y-12842650D02*
X16041611Y-12814079D01*
X16041611Y-12814079D02*
X16051134Y-12795031D01*
X16051134Y-12795031D02*
X16060658Y-12766460D01*
X16060658Y-12766460D02*
X16070182Y-12718841D01*
X16070182Y-12718841D02*
X16070182Y-12680746D01*
X16070182Y-12680746D02*
X16060658Y-12633127D01*
X16060658Y-12633127D02*
X16051134Y-12604555D01*
X16051134Y-12604555D02*
X16041611Y-12585508D01*
X16041611Y-12585508D02*
X16022563Y-12556936D01*
X16022563Y-12556936D02*
X16013039Y-12547412D01*
D14*
X10987500Y-13008500D02*
X11047500Y-12948500D01*
X10987500Y-12888500D01*
X10927500Y-12948500D01*
X10987500Y-13008500D01*
D11*
X11413039Y-13039984D02*
X11298753Y-13039984D01*
X11355896Y-13039984D02*
X11355896Y-12839984D01*
X11355896Y-12839984D02*
X11336848Y-12868555D01*
X11336848Y-12868555D02*
X11317801Y-12887603D01*
X11317801Y-12887603D02*
X11298753Y-12897127D01*
X11498753Y-13020936D02*
X11508277Y-13030460D01*
X11508277Y-13030460D02*
X11498753Y-13039984D01*
X11498753Y-13039984D02*
X11489229Y-13030460D01*
X11489229Y-13030460D02*
X11498753Y-13020936D01*
X11498753Y-13020936D02*
X11498753Y-13039984D01*
X11584467Y-12859031D02*
X11593991Y-12849508D01*
X11593991Y-12849508D02*
X11613039Y-12839984D01*
X11613039Y-12839984D02*
X11660658Y-12839984D01*
X11660658Y-12839984D02*
X11679705Y-12849508D01*
X11679705Y-12849508D02*
X11689229Y-12859031D01*
X11689229Y-12859031D02*
X11698753Y-12878079D01*
X11698753Y-12878079D02*
X11698753Y-12897127D01*
X11698753Y-12897127D02*
X11689229Y-12925698D01*
X11689229Y-12925698D02*
X11574943Y-13039984D01*
X11574943Y-13039984D02*
X11698753Y-13039984D01*
X11822562Y-12839984D02*
X11841610Y-12839984D01*
X11841610Y-12839984D02*
X11860658Y-12849508D01*
X11860658Y-12849508D02*
X11870182Y-12859031D01*
X11870182Y-12859031D02*
X11879705Y-12878079D01*
X11879705Y-12878079D02*
X11889229Y-12916174D01*
X11889229Y-12916174D02*
X11889229Y-12963793D01*
X11889229Y-12963793D02*
X11879705Y-13001888D01*
X11879705Y-13001888D02*
X11870182Y-13020936D01*
X11870182Y-13020936D02*
X11860658Y-13030460D01*
X11860658Y-13030460D02*
X11841610Y-13039984D01*
X11841610Y-13039984D02*
X11822562Y-13039984D01*
X11822562Y-13039984D02*
X11803515Y-13030460D01*
X11803515Y-13030460D02*
X11793991Y-13020936D01*
X11793991Y-13020936D02*
X11784467Y-13001888D01*
X11784467Y-13001888D02*
X11774943Y-12963793D01*
X11774943Y-12963793D02*
X11774943Y-12916174D01*
X11774943Y-12916174D02*
X11784467Y-12878079D01*
X11784467Y-12878079D02*
X11793991Y-12859031D01*
X11793991Y-12859031D02*
X11803515Y-12849508D01*
X11803515Y-12849508D02*
X11822562Y-12839984D01*
X12013039Y-12839984D02*
X12032086Y-12839984D01*
X12032086Y-12839984D02*
X12051134Y-12849508D01*
X12051134Y-12849508D02*
X12060658Y-12859031D01*
X12060658Y-12859031D02*
X12070182Y-12878079D01*
X12070182Y-12878079D02*
X12079705Y-12916174D01*
X12079705Y-12916174D02*
X12079705Y-12963793D01*
X12079705Y-12963793D02*
X12070182Y-13001888D01*
X12070182Y-13001888D02*
X12060658Y-13020936D01*
X12060658Y-13020936D02*
X12051134Y-13030460D01*
X12051134Y-13030460D02*
X12032086Y-13039984D01*
X12032086Y-13039984D02*
X12013039Y-13039984D01*
X12013039Y-13039984D02*
X11993991Y-13030460D01*
X11993991Y-13030460D02*
X11984467Y-13020936D01*
X11984467Y-13020936D02*
X11974943Y-13001888D01*
X11974943Y-13001888D02*
X11965420Y-12963793D01*
X11965420Y-12963793D02*
X11965420Y-12916174D01*
X11965420Y-12916174D02*
X11974943Y-12878079D01*
X11974943Y-12878079D02*
X11984467Y-12859031D01*
X11984467Y-12859031D02*
X11993991Y-12849508D01*
X11993991Y-12849508D02*
X12013039Y-12839984D01*
X12165420Y-13039984D02*
X12165420Y-12906650D01*
X12165420Y-12925698D02*
X12174943Y-12916174D01*
X12174943Y-12916174D02*
X12193991Y-12906650D01*
X12193991Y-12906650D02*
X12222563Y-12906650D01*
X12222563Y-12906650D02*
X12241610Y-12916174D01*
X12241610Y-12916174D02*
X12251134Y-12935222D01*
X12251134Y-12935222D02*
X12251134Y-13039984D01*
X12251134Y-12935222D02*
X12260658Y-12916174D01*
X12260658Y-12916174D02*
X12279705Y-12906650D01*
X12279705Y-12906650D02*
X12308277Y-12906650D01*
X12308277Y-12906650D02*
X12327324Y-12916174D01*
X12327324Y-12916174D02*
X12336848Y-12935222D01*
X12336848Y-12935222D02*
X12336848Y-13039984D01*
X12432086Y-13039984D02*
X12432086Y-12906650D01*
X12432086Y-12925698D02*
X12441610Y-12916174D01*
X12441610Y-12916174D02*
X12460658Y-12906650D01*
X12460658Y-12906650D02*
X12489229Y-12906650D01*
X12489229Y-12906650D02*
X12508277Y-12916174D01*
X12508277Y-12916174D02*
X12517801Y-12935222D01*
X12517801Y-12935222D02*
X12517801Y-13039984D01*
X12517801Y-12935222D02*
X12527324Y-12916174D01*
X12527324Y-12916174D02*
X12546372Y-12906650D01*
X12546372Y-12906650D02*
X12574943Y-12906650D01*
X12574943Y-12906650D02*
X12593991Y-12916174D01*
X12593991Y-12916174D02*
X12603515Y-12935222D01*
X12603515Y-12935222D02*
X12603515Y-13039984D01*
X12993991Y-12830460D02*
X12822563Y-13087603D01*
X13251134Y-12839984D02*
X13270182Y-12839984D01*
X13270182Y-12839984D02*
X13289229Y-12849508D01*
X13289229Y-12849508D02*
X13298753Y-12859031D01*
X13298753Y-12859031D02*
X13308277Y-12878079D01*
X13308277Y-12878079D02*
X13317801Y-12916174D01*
X13317801Y-12916174D02*
X13317801Y-12963793D01*
X13317801Y-12963793D02*
X13308277Y-13001888D01*
X13308277Y-13001888D02*
X13298753Y-13020936D01*
X13298753Y-13020936D02*
X13289229Y-13030460D01*
X13289229Y-13030460D02*
X13270182Y-13039984D01*
X13270182Y-13039984D02*
X13251134Y-13039984D01*
X13251134Y-13039984D02*
X13232086Y-13030460D01*
X13232086Y-13030460D02*
X13222563Y-13020936D01*
X13222563Y-13020936D02*
X13213039Y-13001888D01*
X13213039Y-13001888D02*
X13203515Y-12963793D01*
X13203515Y-12963793D02*
X13203515Y-12916174D01*
X13203515Y-12916174D02*
X13213039Y-12878079D01*
X13213039Y-12878079D02*
X13222563Y-12859031D01*
X13222563Y-12859031D02*
X13232086Y-12849508D01*
X13232086Y-12849508D02*
X13251134Y-12839984D01*
X13403515Y-13020936D02*
X13413039Y-13030460D01*
X13413039Y-13030460D02*
X13403515Y-13039984D01*
X13403515Y-13039984D02*
X13393991Y-13030460D01*
X13393991Y-13030460D02*
X13403515Y-13020936D01*
X13403515Y-13020936D02*
X13403515Y-13039984D01*
X13536848Y-12839984D02*
X13555896Y-12839984D01*
X13555896Y-12839984D02*
X13574944Y-12849508D01*
X13574944Y-12849508D02*
X13584467Y-12859031D01*
X13584467Y-12859031D02*
X13593991Y-12878079D01*
X13593991Y-12878079D02*
X13603515Y-12916174D01*
X13603515Y-12916174D02*
X13603515Y-12963793D01*
X13603515Y-12963793D02*
X13593991Y-13001888D01*
X13593991Y-13001888D02*
X13584467Y-13020936D01*
X13584467Y-13020936D02*
X13574944Y-13030460D01*
X13574944Y-13030460D02*
X13555896Y-13039984D01*
X13555896Y-13039984D02*
X13536848Y-13039984D01*
X13536848Y-13039984D02*
X13517801Y-13030460D01*
X13517801Y-13030460D02*
X13508277Y-13020936D01*
X13508277Y-13020936D02*
X13498753Y-13001888D01*
X13498753Y-13001888D02*
X13489229Y-12963793D01*
X13489229Y-12963793D02*
X13489229Y-12916174D01*
X13489229Y-12916174D02*
X13498753Y-12878079D01*
X13498753Y-12878079D02*
X13508277Y-12859031D01*
X13508277Y-12859031D02*
X13517801Y-12849508D01*
X13517801Y-12849508D02*
X13536848Y-12839984D01*
X13774944Y-12906650D02*
X13774944Y-13039984D01*
X13727325Y-12830460D02*
X13679706Y-12973317D01*
X13679706Y-12973317D02*
X13803515Y-12973317D01*
X13860658Y-12839984D02*
X13993991Y-12839984D01*
X13993991Y-12839984D02*
X13908277Y-13039984D01*
X14060658Y-12859031D02*
X14070182Y-12849508D01*
X14070182Y-12849508D02*
X14089229Y-12839984D01*
X14089229Y-12839984D02*
X14136848Y-12839984D01*
X14136848Y-12839984D02*
X14155896Y-12849508D01*
X14155896Y-12849508D02*
X14165420Y-12859031D01*
X14165420Y-12859031D02*
X14174944Y-12878079D01*
X14174944Y-12878079D02*
X14174944Y-12897127D01*
X14174944Y-12897127D02*
X14165420Y-12925698D01*
X14165420Y-12925698D02*
X14051134Y-13039984D01*
X14051134Y-13039984D02*
X14174944Y-13039984D01*
X14251134Y-12839984D02*
X14251134Y-12878079D01*
X14327325Y-12839984D02*
X14327325Y-12878079D01*
X14622563Y-13116174D02*
X14613039Y-13106650D01*
X14613039Y-13106650D02*
X14593991Y-13078079D01*
X14593991Y-13078079D02*
X14584468Y-13059031D01*
X14584468Y-13059031D02*
X14574944Y-13030460D01*
X14574944Y-13030460D02*
X14565420Y-12982841D01*
X14565420Y-12982841D02*
X14565420Y-12944746D01*
X14565420Y-12944746D02*
X14574944Y-12897127D01*
X14574944Y-12897127D02*
X14584468Y-12868555D01*
X14584468Y-12868555D02*
X14593991Y-12849508D01*
X14593991Y-12849508D02*
X14613039Y-12820936D01*
X14613039Y-12820936D02*
X14622563Y-12811412D01*
X14784468Y-12839984D02*
X14746372Y-12839984D01*
X14746372Y-12839984D02*
X14727325Y-12849508D01*
X14727325Y-12849508D02*
X14717801Y-12859031D01*
X14717801Y-12859031D02*
X14698753Y-12887603D01*
X14698753Y-12887603D02*
X14689229Y-12925698D01*
X14689229Y-12925698D02*
X14689229Y-13001888D01*
X14689229Y-13001888D02*
X14698753Y-13020936D01*
X14698753Y-13020936D02*
X14708277Y-13030460D01*
X14708277Y-13030460D02*
X14727325Y-13039984D01*
X14727325Y-13039984D02*
X14765420Y-13039984D01*
X14765420Y-13039984D02*
X14784468Y-13030460D01*
X14784468Y-13030460D02*
X14793991Y-13020936D01*
X14793991Y-13020936D02*
X14803515Y-13001888D01*
X14803515Y-13001888D02*
X14803515Y-12954269D01*
X14803515Y-12954269D02*
X14793991Y-12935222D01*
X14793991Y-12935222D02*
X14784468Y-12925698D01*
X14784468Y-12925698D02*
X14765420Y-12916174D01*
X14765420Y-12916174D02*
X14727325Y-12916174D01*
X14727325Y-12916174D02*
X14708277Y-12925698D01*
X14708277Y-12925698D02*
X14698753Y-12935222D01*
X14698753Y-12935222D02*
X14689229Y-12954269D01*
X15041610Y-13039984D02*
X15041610Y-12839984D01*
X15127325Y-13039984D02*
X15127325Y-12935222D01*
X15127325Y-12935222D02*
X15117801Y-12916174D01*
X15117801Y-12916174D02*
X15098753Y-12906650D01*
X15098753Y-12906650D02*
X15070182Y-12906650D01*
X15070182Y-12906650D02*
X15051134Y-12916174D01*
X15051134Y-12916174D02*
X15041610Y-12925698D01*
X15251134Y-13039984D02*
X15232087Y-13030460D01*
X15232087Y-13030460D02*
X15222563Y-13020936D01*
X15222563Y-13020936D02*
X15213039Y-13001888D01*
X15213039Y-13001888D02*
X15213039Y-12944746D01*
X15213039Y-12944746D02*
X15222563Y-12925698D01*
X15222563Y-12925698D02*
X15232087Y-12916174D01*
X15232087Y-12916174D02*
X15251134Y-12906650D01*
X15251134Y-12906650D02*
X15279706Y-12906650D01*
X15279706Y-12906650D02*
X15298753Y-12916174D01*
X15298753Y-12916174D02*
X15308277Y-12925698D01*
X15308277Y-12925698D02*
X15317801Y-12944746D01*
X15317801Y-12944746D02*
X15317801Y-13001888D01*
X15317801Y-13001888D02*
X15308277Y-13020936D01*
X15308277Y-13020936D02*
X15298753Y-13030460D01*
X15298753Y-13030460D02*
X15279706Y-13039984D01*
X15279706Y-13039984D02*
X15251134Y-13039984D01*
X15432087Y-13039984D02*
X15413039Y-13030460D01*
X15413039Y-13030460D02*
X15403515Y-13011412D01*
X15403515Y-13011412D02*
X15403515Y-12839984D01*
X15584468Y-13030460D02*
X15565420Y-13039984D01*
X15565420Y-13039984D02*
X15527325Y-13039984D01*
X15527325Y-13039984D02*
X15508277Y-13030460D01*
X15508277Y-13030460D02*
X15498753Y-13011412D01*
X15498753Y-13011412D02*
X15498753Y-12935222D01*
X15498753Y-12935222D02*
X15508277Y-12916174D01*
X15508277Y-12916174D02*
X15527325Y-12906650D01*
X15527325Y-12906650D02*
X15565420Y-12906650D01*
X15565420Y-12906650D02*
X15584468Y-12916174D01*
X15584468Y-12916174D02*
X15593991Y-12935222D01*
X15593991Y-12935222D02*
X15593991Y-12954269D01*
X15593991Y-12954269D02*
X15498753Y-12973317D01*
X15670182Y-13030460D02*
X15689230Y-13039984D01*
X15689230Y-13039984D02*
X15727325Y-13039984D01*
X15727325Y-13039984D02*
X15746372Y-13030460D01*
X15746372Y-13030460D02*
X15755896Y-13011412D01*
X15755896Y-13011412D02*
X15755896Y-13001888D01*
X15755896Y-13001888D02*
X15746372Y-12982841D01*
X15746372Y-12982841D02*
X15727325Y-12973317D01*
X15727325Y-12973317D02*
X15698753Y-12973317D01*
X15698753Y-12973317D02*
X15679706Y-12963793D01*
X15679706Y-12963793D02*
X15670182Y-12944746D01*
X15670182Y-12944746D02*
X15670182Y-12935222D01*
X15670182Y-12935222D02*
X15679706Y-12916174D01*
X15679706Y-12916174D02*
X15698753Y-12906650D01*
X15698753Y-12906650D02*
X15727325Y-12906650D01*
X15727325Y-12906650D02*
X15746372Y-12916174D01*
X15822563Y-13116174D02*
X15832087Y-13106650D01*
X15832087Y-13106650D02*
X15851134Y-13078079D01*
X15851134Y-13078079D02*
X15860658Y-13059031D01*
X15860658Y-13059031D02*
X15870182Y-13030460D01*
X15870182Y-13030460D02*
X15879706Y-12982841D01*
X15879706Y-12982841D02*
X15879706Y-12944746D01*
X15879706Y-12944746D02*
X15870182Y-12897127D01*
X15870182Y-12897127D02*
X15860658Y-12868555D01*
X15860658Y-12868555D02*
X15851134Y-12849508D01*
X15851134Y-12849508D02*
X15832087Y-12820936D01*
X15832087Y-12820936D02*
X15822563Y-12811412D01*
D15*
X10895500Y-13136500D02*
X11047500Y-13288500D01*
X11047500Y-13136500D02*
X10895500Y-13288500D01*
X11047500Y-13212500D02*
G75*
G02*
X10895500Y-13212500I-76000J0D01*
G01*
X10895500Y-13212500D02*
G75*
G02*
X11047500Y-13212500I76000J0D01*
G01*
D11*
X11413039Y-13303984D02*
X11298753Y-13303984D01*
X11355896Y-13303984D02*
X11355896Y-13103984D01*
X11355896Y-13103984D02*
X11336848Y-13132555D01*
X11336848Y-13132555D02*
X11317801Y-13151603D01*
X11317801Y-13151603D02*
X11298753Y-13161127D01*
X11498753Y-13284936D02*
X11508277Y-13294460D01*
X11508277Y-13294460D02*
X11498753Y-13303984D01*
X11498753Y-13303984D02*
X11489229Y-13294460D01*
X11489229Y-13294460D02*
X11498753Y-13284936D01*
X11498753Y-13284936D02*
X11498753Y-13303984D01*
X11689229Y-13103984D02*
X11593991Y-13103984D01*
X11593991Y-13103984D02*
X11584467Y-13199222D01*
X11584467Y-13199222D02*
X11593991Y-13189698D01*
X11593991Y-13189698D02*
X11613039Y-13180174D01*
X11613039Y-13180174D02*
X11660658Y-13180174D01*
X11660658Y-13180174D02*
X11679705Y-13189698D01*
X11679705Y-13189698D02*
X11689229Y-13199222D01*
X11689229Y-13199222D02*
X11698753Y-13218269D01*
X11698753Y-13218269D02*
X11698753Y-13265888D01*
X11698753Y-13265888D02*
X11689229Y-13284936D01*
X11689229Y-13284936D02*
X11679705Y-13294460D01*
X11679705Y-13294460D02*
X11660658Y-13303984D01*
X11660658Y-13303984D02*
X11613039Y-13303984D01*
X11613039Y-13303984D02*
X11593991Y-13294460D01*
X11593991Y-13294460D02*
X11584467Y-13284936D01*
X11774943Y-13123031D02*
X11784467Y-13113508D01*
X11784467Y-13113508D02*
X11803515Y-13103984D01*
X11803515Y-13103984D02*
X11851134Y-13103984D01*
X11851134Y-13103984D02*
X11870182Y-13113508D01*
X11870182Y-13113508D02*
X11879705Y-13123031D01*
X11879705Y-13123031D02*
X11889229Y-13142079D01*
X11889229Y-13142079D02*
X11889229Y-13161127D01*
X11889229Y-13161127D02*
X11879705Y-13189698D01*
X11879705Y-13189698D02*
X11765420Y-13303984D01*
X11765420Y-13303984D02*
X11889229Y-13303984D01*
X12013039Y-13103984D02*
X12032086Y-13103984D01*
X12032086Y-13103984D02*
X12051134Y-13113508D01*
X12051134Y-13113508D02*
X12060658Y-13123031D01*
X12060658Y-13123031D02*
X12070182Y-13142079D01*
X12070182Y-13142079D02*
X12079705Y-13180174D01*
X12079705Y-13180174D02*
X12079705Y-13227793D01*
X12079705Y-13227793D02*
X12070182Y-13265888D01*
X12070182Y-13265888D02*
X12060658Y-13284936D01*
X12060658Y-13284936D02*
X12051134Y-13294460D01*
X12051134Y-13294460D02*
X12032086Y-13303984D01*
X12032086Y-13303984D02*
X12013039Y-13303984D01*
X12013039Y-13303984D02*
X11993991Y-13294460D01*
X11993991Y-13294460D02*
X11984467Y-13284936D01*
X11984467Y-13284936D02*
X11974943Y-13265888D01*
X11974943Y-13265888D02*
X11965420Y-13227793D01*
X11965420Y-13227793D02*
X11965420Y-13180174D01*
X11965420Y-13180174D02*
X11974943Y-13142079D01*
X11974943Y-13142079D02*
X11984467Y-13123031D01*
X11984467Y-13123031D02*
X11993991Y-13113508D01*
X11993991Y-13113508D02*
X12013039Y-13103984D01*
X12165420Y-13303984D02*
X12165420Y-13170650D01*
X12165420Y-13189698D02*
X12174943Y-13180174D01*
X12174943Y-13180174D02*
X12193991Y-13170650D01*
X12193991Y-13170650D02*
X12222563Y-13170650D01*
X12222563Y-13170650D02*
X12241610Y-13180174D01*
X12241610Y-13180174D02*
X12251134Y-13199222D01*
X12251134Y-13199222D02*
X12251134Y-13303984D01*
X12251134Y-13199222D02*
X12260658Y-13180174D01*
X12260658Y-13180174D02*
X12279705Y-13170650D01*
X12279705Y-13170650D02*
X12308277Y-13170650D01*
X12308277Y-13170650D02*
X12327324Y-13180174D01*
X12327324Y-13180174D02*
X12336848Y-13199222D01*
X12336848Y-13199222D02*
X12336848Y-13303984D01*
X12432086Y-13303984D02*
X12432086Y-13170650D01*
X12432086Y-13189698D02*
X12441610Y-13180174D01*
X12441610Y-13180174D02*
X12460658Y-13170650D01*
X12460658Y-13170650D02*
X12489229Y-13170650D01*
X12489229Y-13170650D02*
X12508277Y-13180174D01*
X12508277Y-13180174D02*
X12517801Y-13199222D01*
X12517801Y-13199222D02*
X12517801Y-13303984D01*
X12517801Y-13199222D02*
X12527324Y-13180174D01*
X12527324Y-13180174D02*
X12546372Y-13170650D01*
X12546372Y-13170650D02*
X12574943Y-13170650D01*
X12574943Y-13170650D02*
X12593991Y-13180174D01*
X12593991Y-13180174D02*
X12603515Y-13199222D01*
X12603515Y-13199222D02*
X12603515Y-13303984D01*
X12993991Y-13094460D02*
X12822563Y-13351603D01*
X13251134Y-13103984D02*
X13270182Y-13103984D01*
X13270182Y-13103984D02*
X13289229Y-13113508D01*
X13289229Y-13113508D02*
X13298753Y-13123031D01*
X13298753Y-13123031D02*
X13308277Y-13142079D01*
X13308277Y-13142079D02*
X13317801Y-13180174D01*
X13317801Y-13180174D02*
X13317801Y-13227793D01*
X13317801Y-13227793D02*
X13308277Y-13265888D01*
X13308277Y-13265888D02*
X13298753Y-13284936D01*
X13298753Y-13284936D02*
X13289229Y-13294460D01*
X13289229Y-13294460D02*
X13270182Y-13303984D01*
X13270182Y-13303984D02*
X13251134Y-13303984D01*
X13251134Y-13303984D02*
X13232086Y-13294460D01*
X13232086Y-13294460D02*
X13222563Y-13284936D01*
X13222563Y-13284936D02*
X13213039Y-13265888D01*
X13213039Y-13265888D02*
X13203515Y-13227793D01*
X13203515Y-13227793D02*
X13203515Y-13180174D01*
X13203515Y-13180174D02*
X13213039Y-13142079D01*
X13213039Y-13142079D02*
X13222563Y-13123031D01*
X13222563Y-13123031D02*
X13232086Y-13113508D01*
X13232086Y-13113508D02*
X13251134Y-13103984D01*
X13403515Y-13284936D02*
X13413039Y-13294460D01*
X13413039Y-13294460D02*
X13403515Y-13303984D01*
X13403515Y-13303984D02*
X13393991Y-13294460D01*
X13393991Y-13294460D02*
X13403515Y-13284936D01*
X13403515Y-13284936D02*
X13403515Y-13303984D01*
X13536848Y-13103984D02*
X13555896Y-13103984D01*
X13555896Y-13103984D02*
X13574944Y-13113508D01*
X13574944Y-13113508D02*
X13584467Y-13123031D01*
X13584467Y-13123031D02*
X13593991Y-13142079D01*
X13593991Y-13142079D02*
X13603515Y-13180174D01*
X13603515Y-13180174D02*
X13603515Y-13227793D01*
X13603515Y-13227793D02*
X13593991Y-13265888D01*
X13593991Y-13265888D02*
X13584467Y-13284936D01*
X13584467Y-13284936D02*
X13574944Y-13294460D01*
X13574944Y-13294460D02*
X13555896Y-13303984D01*
X13555896Y-13303984D02*
X13536848Y-13303984D01*
X13536848Y-13303984D02*
X13517801Y-13294460D01*
X13517801Y-13294460D02*
X13508277Y-13284936D01*
X13508277Y-13284936D02*
X13498753Y-13265888D01*
X13498753Y-13265888D02*
X13489229Y-13227793D01*
X13489229Y-13227793D02*
X13489229Y-13180174D01*
X13489229Y-13180174D02*
X13498753Y-13142079D01*
X13498753Y-13142079D02*
X13508277Y-13123031D01*
X13508277Y-13123031D02*
X13517801Y-13113508D01*
X13517801Y-13113508D02*
X13536848Y-13103984D01*
X13784467Y-13103984D02*
X13689229Y-13103984D01*
X13689229Y-13103984D02*
X13679706Y-13199222D01*
X13679706Y-13199222D02*
X13689229Y-13189698D01*
X13689229Y-13189698D02*
X13708277Y-13180174D01*
X13708277Y-13180174D02*
X13755896Y-13180174D01*
X13755896Y-13180174D02*
X13774944Y-13189698D01*
X13774944Y-13189698D02*
X13784467Y-13199222D01*
X13784467Y-13199222D02*
X13793991Y-13218269D01*
X13793991Y-13218269D02*
X13793991Y-13265888D01*
X13793991Y-13265888D02*
X13784467Y-13284936D01*
X13784467Y-13284936D02*
X13774944Y-13294460D01*
X13774944Y-13294460D02*
X13755896Y-13303984D01*
X13755896Y-13303984D02*
X13708277Y-13303984D01*
X13708277Y-13303984D02*
X13689229Y-13294460D01*
X13689229Y-13294460D02*
X13679706Y-13284936D01*
X13889229Y-13303984D02*
X13927325Y-13303984D01*
X13927325Y-13303984D02*
X13946372Y-13294460D01*
X13946372Y-13294460D02*
X13955896Y-13284936D01*
X13955896Y-13284936D02*
X13974944Y-13256365D01*
X13974944Y-13256365D02*
X13984467Y-13218269D01*
X13984467Y-13218269D02*
X13984467Y-13142079D01*
X13984467Y-13142079D02*
X13974944Y-13123031D01*
X13974944Y-13123031D02*
X13965420Y-13113508D01*
X13965420Y-13113508D02*
X13946372Y-13103984D01*
X13946372Y-13103984D02*
X13908277Y-13103984D01*
X13908277Y-13103984D02*
X13889229Y-13113508D01*
X13889229Y-13113508D02*
X13879706Y-13123031D01*
X13879706Y-13123031D02*
X13870182Y-13142079D01*
X13870182Y-13142079D02*
X13870182Y-13189698D01*
X13870182Y-13189698D02*
X13879706Y-13208746D01*
X13879706Y-13208746D02*
X13889229Y-13218269D01*
X13889229Y-13218269D02*
X13908277Y-13227793D01*
X13908277Y-13227793D02*
X13946372Y-13227793D01*
X13946372Y-13227793D02*
X13965420Y-13218269D01*
X13965420Y-13218269D02*
X13974944Y-13208746D01*
X13974944Y-13208746D02*
X13984467Y-13189698D01*
X14098753Y-13189698D02*
X14079706Y-13180174D01*
X14079706Y-13180174D02*
X14070182Y-13170650D01*
X14070182Y-13170650D02*
X14060658Y-13151603D01*
X14060658Y-13151603D02*
X14060658Y-13142079D01*
X14060658Y-13142079D02*
X14070182Y-13123031D01*
X14070182Y-13123031D02*
X14079706Y-13113508D01*
X14079706Y-13113508D02*
X14098753Y-13103984D01*
X14098753Y-13103984D02*
X14136848Y-13103984D01*
X14136848Y-13103984D02*
X14155896Y-13113508D01*
X14155896Y-13113508D02*
X14165420Y-13123031D01*
X14165420Y-13123031D02*
X14174944Y-13142079D01*
X14174944Y-13142079D02*
X14174944Y-13151603D01*
X14174944Y-13151603D02*
X14165420Y-13170650D01*
X14165420Y-13170650D02*
X14155896Y-13180174D01*
X14155896Y-13180174D02*
X14136848Y-13189698D01*
X14136848Y-13189698D02*
X14098753Y-13189698D01*
X14098753Y-13189698D02*
X14079706Y-13199222D01*
X14079706Y-13199222D02*
X14070182Y-13208746D01*
X14070182Y-13208746D02*
X14060658Y-13227793D01*
X14060658Y-13227793D02*
X14060658Y-13265888D01*
X14060658Y-13265888D02*
X14070182Y-13284936D01*
X14070182Y-13284936D02*
X14079706Y-13294460D01*
X14079706Y-13294460D02*
X14098753Y-13303984D01*
X14098753Y-13303984D02*
X14136848Y-13303984D01*
X14136848Y-13303984D02*
X14155896Y-13294460D01*
X14155896Y-13294460D02*
X14165420Y-13284936D01*
X14165420Y-13284936D02*
X14174944Y-13265888D01*
X14174944Y-13265888D02*
X14174944Y-13227793D01*
X14174944Y-13227793D02*
X14165420Y-13208746D01*
X14165420Y-13208746D02*
X14155896Y-13199222D01*
X14155896Y-13199222D02*
X14136848Y-13189698D01*
X14251134Y-13103984D02*
X14251134Y-13142079D01*
X14327325Y-13103984D02*
X14327325Y-13142079D01*
X14622563Y-13380174D02*
X14613039Y-13370650D01*
X14613039Y-13370650D02*
X14593991Y-13342079D01*
X14593991Y-13342079D02*
X14584468Y-13323031D01*
X14584468Y-13323031D02*
X14574944Y-13294460D01*
X14574944Y-13294460D02*
X14565420Y-13246841D01*
X14565420Y-13246841D02*
X14565420Y-13208746D01*
X14565420Y-13208746D02*
X14574944Y-13161127D01*
X14574944Y-13161127D02*
X14584468Y-13132555D01*
X14584468Y-13132555D02*
X14593991Y-13113508D01*
X14593991Y-13113508D02*
X14613039Y-13084936D01*
X14613039Y-13084936D02*
X14622563Y-13075412D01*
X14784468Y-13103984D02*
X14746372Y-13103984D01*
X14746372Y-13103984D02*
X14727325Y-13113508D01*
X14727325Y-13113508D02*
X14717801Y-13123031D01*
X14717801Y-13123031D02*
X14698753Y-13151603D01*
X14698753Y-13151603D02*
X14689229Y-13189698D01*
X14689229Y-13189698D02*
X14689229Y-13265888D01*
X14689229Y-13265888D02*
X14698753Y-13284936D01*
X14698753Y-13284936D02*
X14708277Y-13294460D01*
X14708277Y-13294460D02*
X14727325Y-13303984D01*
X14727325Y-13303984D02*
X14765420Y-13303984D01*
X14765420Y-13303984D02*
X14784468Y-13294460D01*
X14784468Y-13294460D02*
X14793991Y-13284936D01*
X14793991Y-13284936D02*
X14803515Y-13265888D01*
X14803515Y-13265888D02*
X14803515Y-13218269D01*
X14803515Y-13218269D02*
X14793991Y-13199222D01*
X14793991Y-13199222D02*
X14784468Y-13189698D01*
X14784468Y-13189698D02*
X14765420Y-13180174D01*
X14765420Y-13180174D02*
X14727325Y-13180174D01*
X14727325Y-13180174D02*
X14708277Y-13189698D01*
X14708277Y-13189698D02*
X14698753Y-13199222D01*
X14698753Y-13199222D02*
X14689229Y-13218269D01*
X15041610Y-13303984D02*
X15041610Y-13103984D01*
X15127325Y-13303984D02*
X15127325Y-13199222D01*
X15127325Y-13199222D02*
X15117801Y-13180174D01*
X15117801Y-13180174D02*
X15098753Y-13170650D01*
X15098753Y-13170650D02*
X15070182Y-13170650D01*
X15070182Y-13170650D02*
X15051134Y-13180174D01*
X15051134Y-13180174D02*
X15041610Y-13189698D01*
X15251134Y-13303984D02*
X15232087Y-13294460D01*
X15232087Y-13294460D02*
X15222563Y-13284936D01*
X15222563Y-13284936D02*
X15213039Y-13265888D01*
X15213039Y-13265888D02*
X15213039Y-13208746D01*
X15213039Y-13208746D02*
X15222563Y-13189698D01*
X15222563Y-13189698D02*
X15232087Y-13180174D01*
X15232087Y-13180174D02*
X15251134Y-13170650D01*
X15251134Y-13170650D02*
X15279706Y-13170650D01*
X15279706Y-13170650D02*
X15298753Y-13180174D01*
X15298753Y-13180174D02*
X15308277Y-13189698D01*
X15308277Y-13189698D02*
X15317801Y-13208746D01*
X15317801Y-13208746D02*
X15317801Y-13265888D01*
X15317801Y-13265888D02*
X15308277Y-13284936D01*
X15308277Y-13284936D02*
X15298753Y-13294460D01*
X15298753Y-13294460D02*
X15279706Y-13303984D01*
X15279706Y-13303984D02*
X15251134Y-13303984D01*
X15432087Y-13303984D02*
X15413039Y-13294460D01*
X15413039Y-13294460D02*
X15403515Y-13275412D01*
X15403515Y-13275412D02*
X15403515Y-13103984D01*
X15584468Y-13294460D02*
X15565420Y-13303984D01*
X15565420Y-13303984D02*
X15527325Y-13303984D01*
X15527325Y-13303984D02*
X15508277Y-13294460D01*
X15508277Y-13294460D02*
X15498753Y-13275412D01*
X15498753Y-13275412D02*
X15498753Y-13199222D01*
X15498753Y-13199222D02*
X15508277Y-13180174D01*
X15508277Y-13180174D02*
X15527325Y-13170650D01*
X15527325Y-13170650D02*
X15565420Y-13170650D01*
X15565420Y-13170650D02*
X15584468Y-13180174D01*
X15584468Y-13180174D02*
X15593991Y-13199222D01*
X15593991Y-13199222D02*
X15593991Y-13218269D01*
X15593991Y-13218269D02*
X15498753Y-13237317D01*
X15670182Y-13294460D02*
X15689230Y-13303984D01*
X15689230Y-13303984D02*
X15727325Y-13303984D01*
X15727325Y-13303984D02*
X15746372Y-13294460D01*
X15746372Y-13294460D02*
X15755896Y-13275412D01*
X15755896Y-13275412D02*
X15755896Y-13265888D01*
X15755896Y-13265888D02*
X15746372Y-13246841D01*
X15746372Y-13246841D02*
X15727325Y-13237317D01*
X15727325Y-13237317D02*
X15698753Y-13237317D01*
X15698753Y-13237317D02*
X15679706Y-13227793D01*
X15679706Y-13227793D02*
X15670182Y-13208746D01*
X15670182Y-13208746D02*
X15670182Y-13199222D01*
X15670182Y-13199222D02*
X15679706Y-13180174D01*
X15679706Y-13180174D02*
X15698753Y-13170650D01*
X15698753Y-13170650D02*
X15727325Y-13170650D01*
X15727325Y-13170650D02*
X15746372Y-13180174D01*
X15822563Y-13380174D02*
X15832087Y-13370650D01*
X15832087Y-13370650D02*
X15851134Y-13342079D01*
X15851134Y-13342079D02*
X15860658Y-13323031D01*
X15860658Y-13323031D02*
X15870182Y-13294460D01*
X15870182Y-13294460D02*
X15879706Y-13246841D01*
X15879706Y-13246841D02*
X15879706Y-13208746D01*
X15879706Y-13208746D02*
X15870182Y-13161127D01*
X15870182Y-13161127D02*
X15860658Y-13132555D01*
X15860658Y-13132555D02*
X15851134Y-13113508D01*
X15851134Y-13113508D02*
X15832087Y-13084936D01*
X15832087Y-13084936D02*
X15822563Y-13075412D01*
M02*
